<svg width="120" height="100" viewBox="0 0 120 100" fill="none" xmlns="http://www.w3.org/2000/svg">
<g id="slur">
<path id="Vector 1" d="M24.5 63V47.5M24.5 47.5L38.5 46.4667L34.5 32H21L23.5681 33.712C28.3307 36.8871 28.792 43.7129 24.5 47.5V47.5ZM24.5 47.5L38.5 63M47 63L52.75 47.5M71 63L64.75 47.5M52.75 47.5L58.5 32L64.75 47.5M52.75 47.5H64.75" stroke="black" stroke-linecap="round" stroke-linejoin="round"/>
<path id="Vector 2" d="M80.5 46L88.9825 33.6025C90.3566 31.5942 93.5 32.5667 93.5 35V35L92.3583 65.5418C92.0778 73.0449 82.4632 75.9489 78.076 69.8556V69.8556C75.5436 66.3383 76.3238 61.4365 79.8232 58.8792L112.5 35" stroke="black" stroke-linecap="round" stroke-linejoin="round"/>
</g>
</svg>
