<svg width="120" height="100" viewBox="0 0 120 100" fill="none" xmlns="http://www.w3.org/2000/svg">
    <g id="traiangles">
        <g id="lightGroup">
            <path id="light1" opacity="0.7"
                d="M41.5 49.634C42.1667 50.0189 42.1667 50.9811 41.5 51.366L12.25 68.2535C11.5833 68.6384 10.75 68.1573 10.75 67.3875L10.75 33.6125C10.75 32.8427 11.5833 32.3616 12.25 32.7465L41.5 49.634Z"
                fill="#C0FAC6" />
        </g>
        <g id="darkGroup">

            <path id="dark1" opacity="0.7"
                d="M58.5 49.634C59.1667 50.0189 59.1667 50.9811 58.5 51.366L29.25 68.2535C28.5833 68.6384 27.75 68.1573 27.75 67.3875L27.75 33.6125C27.75 32.8427 28.5833 32.3616 29.25 32.7465L58.5 49.634Z"
                fill="#5A6FE0" />
            <path id="dark2" opacity="0.7"
                d="M41.5 49.634C42.1667 50.0189 42.1667 50.9811 41.5 51.366L12.25 68.2535C11.5833 68.6384 10.75 68.1573 10.75 67.3875L10.75 33.6125C10.75 32.8427 11.5833 32.3616 12.25 32.7465L41.5 49.634Z"
                fill="#5A6FE0" />
        </g>
    </g>
</svg>