<svg width="180" height="80" viewBox="0 0 180 80" fill="none" xmlns="http://www.w3.org/2000/svg">
<g id="applogo" clip-path="url(#clip0_127_3)">
<g id="logo">
<path id="bigtriangle" d="M20 5L37.3205 35H2.67949L20 5Z" fill="#4987EE"/>
<path id="smalltriangle" d="M52.28 26.0374L43.9977 41.2493L34.9649 26.4707L52.28 26.0374Z" fill="#00F6FF"/>
</g>
<g id="TradeYukti">
<path d="M61.3237 34.0898C61.2638 34.0299 61.2339 33.9102 61.2339 33.7305C61.2339 33.416 61.2563 33.2588 61.3013 33.2588C61.4211 33.2588 61.5933 33.2288 61.8179 33.1689C62.0425 33.109 62.2521 33.0342 62.4468 32.9443C62.6414 32.8545 62.7537 32.7721 62.7837 32.6973C62.8436 32.4876 62.881 32.2406 62.896 31.9561C62.9259 31.6715 62.9409 31.3421 62.9409 30.9678V22.8369C62.9409 21.6689 62.881 20.9801 62.7612 20.7705L62.6489 20.5684C62.589 20.5085 62.3944 20.4635 62.0649 20.4336C61.7355 20.3887 61.3537 20.3662 60.9194 20.3662C60.3055 20.3662 59.8039 20.5384 59.4146 20.8828C59.0252 21.2122 58.7257 21.7738 58.5161 22.5674C58.4862 22.6423 58.4113 22.6797 58.2915 22.6797C57.9621 22.6797 57.745 22.6273 57.6401 22.5225L58.0669 18.8613C58.3963 18.9362 58.6883 18.9961 58.9429 19.041C59.1974 19.0859 59.422 19.1084 59.6167 19.1084C60.3804 19.1084 61.1965 19.1309 62.0649 19.1758C62.9484 19.2207 63.772 19.2432 64.5356 19.2432C65.2993 19.2432 66.1229 19.2207 67.0063 19.1758C67.8898 19.1309 68.7134 19.1084 69.4771 19.1084C69.6717 19.1084 69.8963 19.0859 70.1509 19.041C70.4054 18.9961 70.6974 18.9362 71.0269 18.8613L71.4536 22.5449C71.3488 22.6497 71.1317 22.7021 70.8022 22.7021C70.6825 22.7021 70.6076 22.6647 70.5776 22.5898C70.2033 21.1074 69.4022 20.3662 68.1743 20.3662C66.9764 20.3662 66.34 20.501 66.2651 20.7705C66.2052 20.9801 66.1603 21.2497 66.1304 21.5791C66.1004 21.9085 66.0854 22.3053 66.0854 22.7695V30.8779C66.0854 31.2523 66.1004 31.5892 66.1304 31.8887C66.1603 32.1882 66.2052 32.4577 66.2651 32.6973C66.2951 32.7572 66.3999 32.832 66.5796 32.9219C66.7743 33.0117 66.9764 33.0941 67.186 33.1689C67.4106 33.2288 67.5679 33.2588 67.6577 33.2588C67.7176 33.2588 67.7476 33.401 67.7476 33.6855C67.7476 33.8353 67.7326 33.9701 67.7026 34.0898C67.6427 34.0898 67.5005 34.0824 67.2759 34.0674C67.0513 34.0524 66.7443 34.0299 66.355 34C65.9657 33.9701 65.6213 33.9476 65.3218 33.9326C65.0223 33.9176 64.7752 33.9102 64.5806 33.9102C64.311 33.9102 63.9442 33.9251 63.48 33.9551C63.0158 33.985 62.5741 34.0075 62.1548 34.0225C61.7505 34.0524 61.4735 34.0749 61.3237 34.0898ZM71.8354 34.0898C71.7756 34.0299 71.7456 33.8727 71.7456 33.6182C71.7456 33.3786 71.7756 33.2588 71.8354 33.2588C71.9552 33.2588 72.1274 33.2288 72.3521 33.1689C72.5767 33.0941 72.7863 33.0117 72.981 32.9219C73.1756 32.832 73.2804 32.7572 73.2954 32.6973C73.4002 32.278 73.4526 31.709 73.4526 30.9902V27.9131C73.4526 27.0745 73.3179 26.513 73.0483 26.2285C72.9285 26.0788 72.7638 25.974 72.5542 25.9141C72.3595 25.8542 72.1873 25.8167 72.0376 25.8018C71.8879 25.7718 71.813 25.7419 71.813 25.7119C71.813 25.1878 71.8504 24.9258 71.9253 24.9258C72.3146 24.9258 72.8537 24.8434 73.5425 24.6787C74.2463 24.499 74.9875 24.3268 75.7661 24.1621L76.2827 24.0498C76.3576 24.0498 76.4325 24.1022 76.5073 24.207C76.5822 24.2969 76.6196 24.3717 76.6196 24.4316C76.6047 24.5215 76.5822 24.7012 76.5522 24.9707C76.5373 25.2402 76.5223 25.39 76.5073 25.4199C77.256 24.4466 78.1021 23.96 79.0454 23.96C79.7192 23.96 80.3631 24.237 80.9771 24.791C80.9771 25.5697 80.8797 26.1462 80.6851 26.5205C80.5054 26.8949 80.1685 27.082 79.6743 27.082C79.3748 27.082 79.0304 26.9098 78.6411 26.5654C78.2518 26.221 77.9074 26.0488 77.6079 26.0488C77.3084 26.0488 77.0688 26.1686 76.8892 26.4082C76.7095 26.6328 76.5747 26.9248 76.4849 27.2842C76.41 27.6436 76.3726 28.0179 76.3726 28.4072V30.6758C76.3726 31.6491 76.425 32.3229 76.5298 32.6973C76.5597 32.7572 76.6646 32.832 76.8442 32.9219C77.0239 33.0117 77.2186 33.0941 77.4282 33.1689C77.6379 33.2288 77.7801 33.2588 77.855 33.2588C77.8849 33.2588 77.9074 33.3187 77.9224 33.4385C77.9373 33.5583 77.9448 33.6855 77.9448 33.8203C77.9448 33.9551 77.9299 34.0449 77.8999 34.0898C77.7801 34.0749 77.5256 34.0524 77.1362 34.0225C76.7469 34.0075 76.3351 33.985 75.9009 33.9551C75.4816 33.9251 75.1522 33.9102 74.9126 33.9102C74.7329 33.9102 74.4858 33.9176 74.1714 33.9326C73.8719 33.9476 73.5575 33.9701 73.228 34C72.8986 34.015 72.6066 34.0299 72.3521 34.0449C72.0975 34.0749 71.9253 34.0898 71.8354 34.0898ZM84.9077 34.1572C84.0841 34.1572 83.4253 33.9326 82.9312 33.4834C82.452 33.0192 82.2124 32.4427 82.2124 31.7539C82.2124 31.1699 82.3921 30.6608 82.7515 30.2266C83.1258 29.7923 83.59 29.4479 84.144 29.1934C84.3537 29.1035 84.5483 29.0286 84.728 28.9688C84.9077 28.8939 85.0724 28.8265 85.2222 28.7666C85.7912 28.5869 86.2479 28.4596 86.5923 28.3848C86.9367 28.2949 87.1912 28.2201 87.356 28.1602C87.4907 28.1152 87.5581 28.0029 87.5581 27.8232V27.0146C87.5581 25.7868 87.1838 25.1729 86.4351 25.1729C85.5666 25.1729 85.1323 25.6745 85.1323 26.6777C85.1323 27.0072 84.9976 27.2542 84.728 27.4189C84.4585 27.5687 84.159 27.6436 83.8296 27.6436C83.1408 27.6436 82.6691 27.4189 82.4146 26.9697C82.4146 26.5804 82.5493 26.2061 82.8188 25.8467C83.1034 25.4873 83.4702 25.1654 83.9194 24.8809C84.3836 24.5814 84.9002 24.3493 85.4692 24.1846C86.0532 24.0049 86.6372 23.915 87.2212 23.915C88.2694 23.915 89.0705 24.207 89.6245 24.791C90.1935 25.36 90.478 26.4007 90.478 27.9131V31.5518C90.478 32.0609 90.6577 32.3154 91.0171 32.3154C91.2866 32.3154 91.5412 32.2181 91.7808 32.0234C91.8856 32.0833 91.938 32.1956 91.938 32.3604C91.938 32.7497 91.8856 33.0267 91.7808 33.1914C91.5711 33.3861 91.2267 33.5957 90.7476 33.8203C90.2834 34.0299 89.8416 34.1348 89.4224 34.1348C89.063 34.1348 88.7186 34.0299 88.3892 33.8203C88.0597 33.5957 87.8426 33.3411 87.7378 33.0566C87.7228 33.0566 87.6405 33.109 87.4907 33.2139C87.341 33.3187 87.2287 33.401 87.1538 33.4609C86.8543 33.6556 86.5099 33.8203 86.1206 33.9551C85.7313 34.0898 85.327 34.1572 84.9077 34.1572ZM86.3228 32.54C86.7121 32.54 87.0116 32.4502 87.2212 32.2705C87.4458 32.0758 87.5581 31.8438 87.5581 31.5742V29.3057L86.3901 29.71C86.0757 29.8148 85.7837 29.972 85.5142 30.1816C85.2596 30.3913 85.1323 30.6683 85.1323 31.0127C85.1323 31.5518 85.2446 31.9411 85.4692 32.1807C85.7088 32.4202 85.9933 32.54 86.3228 32.54ZM97.5757 34.1348C96.7671 34.1348 96.0034 33.9326 95.2847 33.5283C94.5809 33.124 94.0044 32.555 93.5552 31.8213C93.1209 31.0876 92.9038 30.2266 92.9038 29.2383C92.9038 28.235 93.1359 27.3366 93.6001 26.543C94.0793 25.7493 94.7231 25.1204 95.5317 24.6562C96.3553 24.1921 97.2762 23.96 98.2944 23.96C98.9233 23.96 99.4474 24.0273 99.8667 24.1621C99.9116 24.1621 99.9341 24.0573 99.9341 23.8477V22.0732C99.9341 21.4443 99.8892 20.9053 99.7993 20.4561C99.7394 20.2165 99.3501 20.0967 98.6313 20.0967H98.4292C98.3394 20.0967 98.2944 19.9469 98.2944 19.6475C98.2944 19.3929 98.3394 19.2656 98.4292 19.2656C99.2977 19.1908 100.114 19.0635 100.877 18.8838C101.656 18.7041 102.21 18.5618 102.54 18.457L102.764 18.3896H102.809C102.869 18.3896 102.929 18.4346 102.989 18.5244C103.049 18.6143 103.086 18.6966 103.101 18.7715C102.936 19.4753 102.854 20.2314 102.854 21.04V30.6982C102.854 31.0277 102.869 31.387 102.899 31.7764C102.929 32.1507 102.996 32.3903 103.101 32.4951C103.221 32.585 103.356 32.6374 103.505 32.6523C103.655 32.6523 103.85 32.6673 104.089 32.6973L104.314 32.7197C104.359 32.7347 104.381 32.8245 104.381 32.9893C104.381 33.3636 104.336 33.5508 104.247 33.5508C103.872 33.5658 103.438 33.6107 102.944 33.6855C102.465 33.7604 101.993 33.8353 101.529 33.9102C101.065 33.985 100.69 34.0449 100.406 34.0898L100.069 34.1348C99.979 34.1497 99.9341 34.0225 99.9341 33.7529V33.2812C99.9341 33.1615 99.9041 33.1315 99.8442 33.1914C99.2153 33.8203 98.4591 34.1348 97.5757 34.1348ZM98.1597 32.7646C98.6688 32.7646 99.0881 32.6224 99.4175 32.3379C99.7619 32.0384 99.9341 31.679 99.9341 31.2598V27.1719C99.9341 26.9922 99.9191 26.82 99.8892 26.6553C99.8592 26.4906 99.7918 26.2809 99.687 26.0264C99.5822 25.7718 99.395 25.5697 99.1255 25.4199C98.8709 25.2552 98.549 25.1729 98.1597 25.1729C97.4559 25.1729 96.9393 25.4574 96.6099 26.0264C96.2954 26.5804 96.1382 27.4714 96.1382 28.6992C96.1382 31.4095 96.812 32.7646 98.1597 32.7646ZM110.333 34.1572C109.42 34.1572 108.574 33.9251 107.795 33.4609C107.032 32.9967 106.418 32.3753 105.954 31.5967C105.504 30.818 105.28 29.9645 105.28 29.0361C105.28 28.0778 105.482 27.2168 105.886 26.4531C106.306 25.6895 106.882 25.083 107.616 24.6338C108.349 24.1846 109.195 23.96 110.154 23.96C111.097 23.96 111.898 24.1846 112.557 24.6338C113.231 25.068 113.74 25.6146 114.084 26.2734C114.444 26.9173 114.624 27.5687 114.624 28.2275C114.624 28.5719 114.549 28.7965 114.399 28.9014C114.264 29.0062 113.987 29.0586 113.568 29.0586H108.492C108.402 29.0586 108.357 29.111 108.357 29.2158C108.357 29.7549 108.454 30.264 108.649 30.7432C108.859 31.2223 109.158 31.6117 109.547 31.9111C109.952 32.2106 110.438 32.3604 111.007 32.3604C111.516 32.3604 111.988 32.2855 112.422 32.1357C112.722 32.0459 112.954 31.9635 113.119 31.8887C113.283 31.8138 113.433 31.7314 113.568 31.6416C113.718 31.5368 113.89 31.4095 114.084 31.2598C114.219 31.3197 114.287 31.4619 114.287 31.6865C114.287 31.8812 114.257 32.0309 114.197 32.1357C114.107 32.3753 113.867 32.6523 113.478 32.9668C113.104 33.2812 112.639 33.5583 112.085 33.7979C111.546 34.0374 110.962 34.1572 110.333 34.1572ZM108.514 27.8232H111.367C111.576 27.8232 111.681 27.681 111.681 27.3965C111.681 26.8275 111.524 26.3184 111.209 25.8691C110.91 25.4199 110.521 25.1953 110.042 25.1953C109.607 25.1953 109.263 25.3525 109.008 25.667C108.769 25.9665 108.597 26.3034 108.492 26.6777C108.402 27.0521 108.357 27.359 108.357 27.5986C108.357 27.7484 108.409 27.8232 108.514 27.8232Z" fill="#4987EE"/>
<path d="M119.677 34.0898C119.617 34.0299 119.587 33.9102 119.587 33.7305C119.587 33.416 119.61 33.2588 119.655 33.2588C119.775 33.2588 119.947 33.2288 120.171 33.1689C120.396 33.109 120.606 33.0342 120.8 32.9443C120.995 32.8545 121.107 32.7721 121.137 32.6973C121.242 32.3229 121.294 31.7165 121.294 30.8779V27.0596C121.294 26.9398 121.062 26.4606 120.598 25.6221L119.183 23.1289L118.487 21.9385C118.232 21.4893 118.008 21.1299 117.813 20.8604C117.618 20.5758 117.439 20.3887 117.274 20.2988C116.9 20.0742 116.503 19.9619 116.083 19.9619C116.024 19.9619 115.994 19.8346 115.994 19.5801C115.994 19.3405 116.024 19.1908 116.083 19.1309C116.653 19.1608 117.222 19.1908 117.791 19.2207C118.36 19.2507 118.854 19.2656 119.273 19.2656C119.617 19.2656 120.688 19.2207 122.485 19.1309C122.515 19.1608 122.53 19.2507 122.53 19.4004C122.53 19.5352 122.522 19.6624 122.507 19.7822C122.492 19.902 122.47 19.9619 122.44 19.9619C122.215 19.9619 121.961 20.0068 121.676 20.0967C121.407 20.1715 121.264 20.2839 121.25 20.4336C121.25 20.5534 121.309 20.7181 121.429 20.9277L123.675 24.9033C123.765 24.9782 123.84 24.9632 123.9 24.8584C124.125 24.5439 124.372 24.1621 124.641 23.7129C124.926 23.2637 125.195 22.8145 125.45 22.3652C125.704 21.916 125.914 21.5192 126.079 21.1748C126.258 20.8154 126.348 20.5758 126.348 20.4561C126.348 20.1266 125.869 19.9619 124.911 19.9619C124.881 19.9619 124.851 19.902 124.821 19.7822C124.806 19.6624 124.806 19.5352 124.821 19.4004C124.836 19.2507 124.858 19.1608 124.888 19.1309C126.236 19.2207 127.142 19.2656 127.606 19.2656C127.995 19.2656 128.841 19.2207 130.144 19.1309C130.189 19.2656 130.211 19.4004 130.211 19.5352C130.211 19.8047 130.181 19.9395 130.122 19.9395C129.852 19.9395 129.545 20.0068 129.201 20.1416C128.856 20.2764 128.579 20.4785 128.37 20.748C128.22 20.9577 127.988 21.3021 127.673 21.7812C127.359 22.2454 127.014 22.7695 126.64 23.3535C126.281 23.9375 125.929 24.5065 125.584 25.0605C125.255 25.6146 124.978 26.0863 124.753 26.4756C124.544 26.8649 124.439 27.097 124.439 27.1719V30.7432C124.439 31.1624 124.454 31.5368 124.484 31.8662C124.514 32.1807 124.559 32.4577 124.619 32.6973C124.649 32.7572 124.753 32.832 124.933 32.9219C125.128 33.0117 125.33 33.0941 125.54 33.1689C125.764 33.2288 125.921 33.2588 126.011 33.2588C126.071 33.2588 126.101 33.401 126.101 33.6855C126.101 33.8353 126.086 33.9701 126.056 34.0898C125.996 34.0898 125.854 34.0824 125.629 34.0674C125.405 34.0524 125.098 34.0299 124.708 34C124.319 33.9701 123.975 33.9476 123.675 33.9326C123.376 33.9176 123.129 33.9102 122.934 33.9102C122.665 33.9102 122.298 33.9251 121.833 33.9551C121.369 33.985 120.928 34.0075 120.508 34.0225C120.104 34.0524 119.827 34.0749 119.677 34.0898ZM137.646 34.1123C137.556 34.1123 137.511 33.9775 137.511 33.708V32.877C137.511 32.7572 137.481 32.7272 137.421 32.7871C137.107 33.1165 136.643 33.416 136.029 33.6855C135.43 33.9551 134.778 34.0898 134.075 34.0898C133.491 34.0898 132.974 33.9102 132.525 33.5508C132.091 33.1914 131.754 32.7122 131.514 32.1133C131.275 31.4993 131.155 30.8255 131.155 30.0918V27.9131C131.155 27.0745 131.02 26.513 130.75 26.2285C130.631 26.0788 130.466 25.974 130.256 25.9141C130.062 25.8542 129.889 25.8167 129.74 25.8018C129.59 25.7718 129.515 25.7419 129.515 25.7119C129.515 25.1878 129.553 24.9258 129.627 24.9258C129.762 24.9258 130.009 24.8958 130.369 24.8359C130.743 24.776 131.147 24.7087 131.582 24.6338C132.016 24.5439 132.428 24.4541 132.817 24.3643C133.221 24.2594 133.528 24.1771 133.738 24.1172C133.783 24.1022 133.82 24.0872 133.85 24.0723C133.895 24.0573 133.94 24.0498 133.985 24.0498C134.06 24.0498 134.135 24.1022 134.209 24.207C134.284 24.2969 134.322 24.3717 134.322 24.4316C134.247 25.0905 134.187 25.6071 134.142 25.9814C134.097 26.3558 134.075 26.5879 134.075 26.6777V29.0811C134.075 30.249 134.224 31.0726 134.524 31.5518C134.823 32.016 135.325 32.248 136.029 32.248C136.538 32.248 136.92 32.1357 137.174 31.9111C137.429 31.6715 137.556 31.4095 137.556 31.125V27.9131C137.556 27.0745 137.421 26.513 137.152 26.2285C137.032 26.0788 136.867 25.974 136.658 25.9141C136.463 25.8542 136.291 25.8167 136.141 25.8018C135.991 25.7718 135.917 25.7419 135.917 25.7119C135.917 25.1878 135.954 24.9258 136.029 24.9258C136.164 24.9258 136.411 24.8958 136.77 24.8359C137.144 24.776 137.549 24.7087 137.983 24.6338C138.417 24.5439 138.829 24.4541 139.218 24.3643C139.623 24.2594 139.93 24.1771 140.139 24.1172L140.386 24.0498C140.461 24.0498 140.536 24.1022 140.611 24.207C140.686 24.2969 140.723 24.3717 140.723 24.4316C140.648 25.0905 140.588 25.6071 140.543 25.9814C140.499 26.3558 140.476 26.5804 140.476 26.6553V31.0576C140.476 31.8512 140.551 32.3229 140.701 32.4727C140.776 32.5475 140.895 32.6074 141.06 32.6523C141.225 32.6823 141.389 32.6973 141.554 32.6973H141.779C141.839 32.7122 141.869 32.7721 141.869 32.877C141.869 33.3112 141.824 33.5283 141.734 33.5283C140.806 33.6182 140.027 33.708 139.398 33.7979C138.784 33.8877 138.305 33.9701 137.96 34.0449L137.646 34.1123ZM143.104 34.0898C143.044 34.0299 143.014 33.8727 143.014 33.6182C143.014 33.3786 143.044 33.2588 143.104 33.2588C143.224 33.2588 143.396 33.2288 143.621 33.1689C143.845 33.0941 144.055 33.0117 144.25 32.9219C144.444 32.832 144.549 32.7572 144.564 32.6973C144.669 32.278 144.721 31.709 144.721 30.9902V22.0732C144.721 21.7288 144.706 21.4219 144.676 21.1523C144.661 20.8828 144.639 20.6507 144.609 20.4561C144.549 20.2165 144.16 20.0967 143.441 20.0967H143.239C143.149 20.0967 143.104 19.9469 143.104 19.6475C143.104 19.3929 143.149 19.2656 143.239 19.2656C143.823 19.2057 144.384 19.1234 144.923 19.0186C145.477 18.9137 145.964 18.8089 146.383 18.7041C146.818 18.5843 147.139 18.502 147.349 18.457L147.619 18.3896C147.679 18.3747 147.738 18.4196 147.798 18.5244C147.858 18.6143 147.896 18.6966 147.911 18.7715C147.731 19.4453 147.641 20.2015 147.641 21.04V28.1826C148.045 28.0628 148.3 27.9655 148.405 27.8906C148.704 27.6361 149.019 27.3665 149.348 27.082C149.693 26.7975 150.007 26.528 150.292 26.2734C150.546 26.0488 150.733 25.8691 150.853 25.7344C150.988 25.5846 151.055 25.4349 151.055 25.2852C151.055 25.0755 150.928 24.9707 150.673 24.9707C150.419 24.9557 150.202 24.9333 150.022 24.9033C150.007 24.8434 149.992 24.776 149.977 24.7012C149.977 24.6263 149.977 24.5365 149.977 24.4316C149.977 24.222 150.007 24.1097 150.067 24.0947L152.627 24.1172C153.062 24.1172 153.473 24.1172 153.863 24.1172C154.267 24.1022 154.634 24.0872 154.963 24.0723C155.023 24.0872 155.053 24.1696 155.053 24.3193C155.068 24.4541 155.068 24.5889 155.053 24.7236C155.038 24.8434 155.016 24.9033 154.986 24.9033C154.537 24.9033 154.013 25.0755 153.414 25.4199C152.38 26.0189 151.355 26.835 150.336 27.8682C151.504 29.141 152.448 30.2116 153.167 31.0801C153.9 31.9336 154.409 32.4652 154.694 32.6748C154.889 32.8395 155.143 32.9818 155.458 33.1016C155.772 33.2064 155.997 33.2588 156.131 33.2588C156.206 33.2588 156.244 33.401 156.244 33.6855C156.244 33.8503 156.229 33.9775 156.199 34.0674L153.369 33.9326C153.189 33.9176 152.957 33.9251 152.672 33.9551C152.388 33.9701 152.051 33.9925 151.662 34.0225L150.381 34.0898C150.321 34.0299 150.292 33.8727 150.292 33.6182C150.292 33.3786 150.321 33.2588 150.381 33.2588C150.531 33.2588 150.703 33.2288 150.898 33.1689C151.093 33.109 151.19 33.0417 151.19 32.9668C151.19 32.9368 151.182 32.9144 151.167 32.8994L147.888 29.1484L147.641 29.2158V30.6533C147.641 31.6416 147.694 32.3229 147.798 32.6973C147.828 32.7572 147.941 32.832 148.135 32.9219C148.33 33.0117 148.532 33.0941 148.742 33.1689C148.966 33.2288 149.124 33.2588 149.213 33.2588C149.243 33.2588 149.266 33.3187 149.281 33.4385C149.296 33.5583 149.303 33.6855 149.303 33.8203C149.303 33.9551 149.288 34.0449 149.258 34.0898C149.168 34.0898 148.996 34.0749 148.742 34.0449C148.487 34.0299 148.188 34.015 147.843 34C147.514 33.9701 147.199 33.9476 146.9 33.9326C146.6 33.9176 146.361 33.9102 146.181 33.9102C146.001 33.9102 145.754 33.9176 145.44 33.9326C145.14 33.9476 144.826 33.9701 144.497 34C144.167 34.015 143.875 34.0299 143.621 34.0449C143.366 34.0749 143.194 34.0898 143.104 34.0898ZM161.342 34.1572C160.519 34.1572 159.807 33.9027 159.208 33.3936C158.625 32.8695 158.333 32.0309 158.333 30.8779V25.6895H156.873C156.753 25.6895 156.693 25.4574 156.693 24.9932C156.693 24.8883 156.708 24.806 156.738 24.7461C157.157 24.5365 157.531 24.3343 157.861 24.1396C158.205 23.93 158.505 23.7279 158.759 23.5332C159.418 23.0091 159.897 22.6123 160.197 22.3428C160.496 22.0732 160.653 21.931 160.668 21.916C160.788 21.916 160.916 21.946 161.05 22.0059C161.185 22.0508 161.252 22.1032 161.252 22.1631V24.3643H163.678C163.798 24.3643 163.858 24.4391 163.858 24.5889C163.858 25.0381 163.783 25.4049 163.633 25.6895H161.252V31.0127C161.252 32.1507 161.657 32.7197 162.465 32.7197C162.885 32.7197 163.177 32.6673 163.341 32.5625C163.521 32.4427 163.641 32.3828 163.701 32.3828C163.761 32.3828 163.82 32.4577 163.88 32.6074C163.955 32.7572 163.993 32.8695 163.993 32.9443C163.993 33.0641 163.843 33.2214 163.543 33.416C163.259 33.6107 162.907 33.7829 162.488 33.9326C162.083 34.0824 161.702 34.1572 161.342 34.1572ZM165.273 34.0898C165.213 34.0299 165.183 33.8877 165.183 33.6631C165.183 33.4385 165.213 33.3262 165.273 33.3262C165.393 33.3262 165.55 33.2962 165.745 33.2363C165.939 33.1764 166.126 33.1016 166.306 33.0117C166.486 32.9219 166.583 32.8395 166.598 32.7646C166.703 32.3454 166.755 31.7764 166.755 31.0576V27.7783C166.755 26.9398 166.621 26.3783 166.351 26.0938C166.231 25.944 166.067 25.8392 165.857 25.7793C165.662 25.7194 165.49 25.682 165.34 25.667C165.191 25.637 165.116 25.6071 165.116 25.5771C165.116 25.1429 165.153 24.9258 165.228 24.9258C165.363 24.9258 165.61 24.8958 165.969 24.8359C166.329 24.776 166.725 24.7012 167.16 24.6113C167.609 24.5215 168.028 24.4316 168.417 24.3418C168.822 24.252 169.129 24.1771 169.338 24.1172L169.585 24.0498C169.66 24.0498 169.735 24.1022 169.81 24.207C169.885 24.2969 169.922 24.3717 169.922 24.4316C169.847 25.0905 169.788 25.6071 169.743 25.9814C169.698 26.3558 169.675 26.5879 169.675 26.6777V30.7207C169.675 31.5742 169.735 32.2555 169.855 32.7646C169.885 32.8245 169.982 32.8994 170.147 32.9893C170.327 33.0791 170.514 33.1615 170.708 33.2363C170.903 33.2962 171.038 33.3262 171.113 33.3262C171.158 33.3262 171.18 33.4385 171.18 33.6631C171.195 33.8877 171.188 34.0299 171.158 34.0898C171.038 34.0749 170.783 34.0524 170.394 34.0225C170.02 34.0075 169.623 33.985 169.204 33.9551C168.784 33.9251 168.455 33.9102 168.215 33.9102C167.976 33.9102 167.646 33.9251 167.227 33.9551C166.808 33.985 166.411 34.0075 166.037 34.0225C165.662 34.0524 165.408 34.0749 165.273 34.0898ZM168.103 21.8262C167.639 21.8262 167.242 21.6689 166.913 21.3545C166.598 21.0251 166.441 20.6283 166.441 20.1641C166.441 19.6999 166.598 19.3105 166.913 18.9961C167.242 18.6667 167.639 18.502 168.103 18.502C168.567 18.502 168.957 18.6667 169.271 18.9961C169.6 19.3105 169.765 19.6999 169.765 20.1641C169.765 20.6283 169.6 21.0251 169.271 21.3545C168.957 21.6689 168.567 21.8262 168.103 21.8262Z" fill="#00F6FF"/>
</g>
<g id="zerodha-logo 1" opacity="0.5" clip-path="url(#clip1_127_3)">
<path id="Vector" fill-rule="evenodd" clip-rule="evenodd" d="M72.0043 65.8785C72.3369 66.3782 72.6128 66.9394 72.8265 67.5445V64.344H70.4804C71.0448 64.6972 71.5618 65.214 72.0043 65.8785ZM68.622 64.685C68.1873 64.685 67.7693 64.7926 67.3777 64.9917V70.656H72.5867C72.5464 67.3526 70.7833 64.685 68.622 64.685Z" fill="#387ED1"/>
<path id="Vector_2" d="M75.9393 69.6803L78.8499 65.5985H76.0308V64.7086H79.9774V65.4515L77.0669 69.5334H79.9774V70.4232H75.9393V69.6803ZM81.0626 64.7086H84.7132V65.6147H81.9224V67.0842H84.3962V67.9904H81.9224V69.517H84.7484V70.4231H81.0626V64.7086ZM85.7844 64.7086H87.9832C88.2932 64.7086 88.5681 64.759 88.8078 64.8596C89.0474 64.9602 89.2469 65.1004 89.4068 65.28C89.5383 65.438 89.6394 65.6202 89.7099 65.827C89.7803 66.0338 89.8155 66.2625 89.8155 66.5127V66.5291C89.8155 66.7632 89.7862 66.974 89.7275 67.1618C89.6688 67.3496 89.5875 67.5157 89.4843 67.6598C89.381 67.8039 89.2576 67.9266 89.1143 68.0271C88.971 68.1276 88.8124 68.2054 88.6387 68.2598L89.9705 70.4232H88.9486L87.7328 68.4313H87.7187H86.6441V70.4232H85.7843L85.7844 64.7086ZM87.9168 67.5414C88.2276 67.5414 88.4752 67.4555 88.6588 67.2832C88.8424 67.1109 88.9347 66.8773 88.9347 66.5821V66.5658C88.9347 66.2543 88.8449 66.0178 88.6658 65.8565C88.4868 65.6952 88.2346 65.6146 87.9095 65.6146H86.6441V67.5413L87.9168 67.5414ZM93.2335 70.5212C92.8529 70.5212 92.5053 70.4437 92.1906 70.2886C91.876 70.1336 91.6057 69.9227 91.3801 69.6558C91.1546 69.389 90.9785 69.0777 90.8517 68.7212C90.725 68.3646 90.6613 67.985 90.6613 67.5823V67.5659C90.6613 67.1631 90.7247 66.7836 90.8517 66.427C90.9787 66.0704 91.1569 65.7575 91.3872 65.4881C91.6176 65.2187 91.8898 65.0051 92.2048 64.8473C92.5198 64.6894 92.8671 64.6105 93.2477 64.6105C93.6283 64.6105 93.9759 64.688 94.2908 64.8432C94.6056 64.9983 94.8757 65.2093 95.1012 65.4759C95.3268 65.7425 95.5028 66.0542 95.6297 66.4106C95.7566 66.7671 95.8201 67.1468 95.8201 67.5494V67.5658C95.8201 67.9687 95.7566 68.3483 95.6297 68.7046C95.5027 69.0609 95.3243 69.3741 95.0941 69.6435C94.864 69.9129 94.5914 70.1266 94.2766 70.2843C93.9617 70.4421 93.6141 70.5212 93.2335 70.5212ZM93.2476 69.5987C93.4909 69.5987 93.7143 69.5457 93.9177 69.4395C94.1211 69.3334 94.2955 69.1893 94.4405 69.0069C94.5856 68.8246 94.699 68.6109 94.7809 68.366C94.8628 68.1211 94.9036 67.8598 94.9036 67.5823V67.566C94.9036 67.2884 94.8628 67.0258 94.7809 66.7781C94.699 66.5304 94.5842 66.3156 94.437 66.1333C94.2898 65.9509 94.113 65.8054 93.9071 65.6965C93.7011 65.5875 93.4767 65.5332 93.2334 65.5332C92.9901 65.5332 92.7668 65.5862 92.5634 65.6923C92.36 65.7985 92.1856 65.9428 92.0405 66.125C91.8955 66.3073 91.7821 66.521 91.7 66.7659C91.618 67.0108 91.5773 67.2721 91.5773 67.5496V67.566C91.5773 67.8435 91.6182 68.1061 91.7 68.3537C91.7819 68.6012 91.8967 68.8164 92.0441 68.9987C92.1915 69.181 92.3681 69.3267 92.5739 69.4354C92.7797 69.5442 93.0043 69.5987 93.2476 69.5987ZM96.8699 64.7086H98.7094C99.0946 64.7086 99.448 64.7808 99.7701 64.925C100.092 65.0692 100.369 65.2692 100.602 65.525C100.834 65.7807 101.014 66.0815 101.141 66.4272C101.268 66.7728 101.331 67.147 101.331 67.5497V67.5661C101.331 67.9689 101.268 68.3445 101.141 68.6926C101.014 69.0408 100.834 69.3432 100.602 69.5988C100.369 69.8544 100.092 70.0561 99.7701 70.2029C99.4484 70.3497 99.0946 70.4233 98.7094 70.4233H96.8699V64.7086ZM98.7023 69.5171C98.9606 69.5171 99.1956 69.4694 99.407 69.3736C99.6185 69.2779 99.7983 69.1442 99.9461 68.9721C100.094 68.8 100.209 68.5948 100.291 68.357C100.374 68.1192 100.415 67.8611 100.415 67.5823V67.5659C100.415 67.2871 100.374 67.0276 100.291 66.7871C100.209 66.5467 100.094 66.3404 99.9461 66.1682C99.7981 65.996 99.6185 65.8607 99.407 65.7623C99.1956 65.6638 98.9606 65.6146 98.7023 65.6146H97.7297V69.517L98.7023 69.5171ZM102.381 64.7086H103.241V67.0843H105.609V64.7086H106.469V70.4233H105.609V68.0149H103.241V70.4232H102.381V64.7086ZM109.485 64.6677H110.288L112.459 70.4232H111.543L111.042 69.0435H108.71L108.202 70.4232H107.314L109.485 64.6677ZM110.725 68.1538L109.872 65.8679L109.027 68.1538H110.725Z" fill="#387ED1"/>
</g>
<g id="Group 1" opacity="0.5">
<path id="powered by kite connect" d="M28.8623 57.207C28.8363 57.181 28.8232 57.1289 28.8232 57.0508C28.8232 56.9661 28.8363 56.9238 28.8623 56.9238C28.9144 56.9238 28.986 56.9141 29.0771 56.8945C29.1683 56.875 29.2529 56.849 29.3311 56.8164C29.4092 56.7839 29.4515 56.7546 29.458 56.7285C29.484 56.6374 29.5003 56.5332 29.5068 56.416C29.5199 56.2988 29.5264 56.1751 29.5264 56.0449V52.0117C29.5264 51.7643 29.4808 51.5885 29.3896 51.4844C29.3245 51.4062 29.2464 51.3542 29.1553 51.3281C29.0706 51.3021 28.9925 51.2891 28.9209 51.2891C28.8558 51.2826 28.8232 51.2728 28.8232 51.2598C28.8232 51.1035 28.8428 51.0221 28.8818 51.0156C29.5719 50.9115 30.0146 50.8301 30.21 50.7715L30.2783 50.752C30.3109 50.752 30.3239 50.7878 30.3174 50.8594C30.3109 50.9245 30.3044 50.9798 30.2979 51.0254L30.2881 51.084C30.3532 51.0384 30.4443 50.9896 30.5615 50.9375C30.6787 50.8854 30.8024 50.8398 30.9326 50.8008C31.0693 50.7617 31.1865 50.7422 31.2842 50.7422C31.7269 50.7422 32.0947 50.8431 32.3877 51.0449C32.6872 51.2402 32.9085 51.4909 33.0518 51.7969C33.2015 52.0964 33.2764 52.4023 33.2764 52.7148C33.2764 53.0273 33.2178 53.3268 33.1006 53.6133C32.9834 53.8932 32.8239 54.1439 32.6221 54.3652C32.4202 54.5866 32.1891 54.7624 31.9287 54.8926C31.6748 55.0163 31.4111 55.0781 31.1377 55.0781C30.9359 55.0781 30.7829 55.0618 30.6787 55.0293C30.5745 55.0033 30.4541 54.9577 30.3174 54.8926C30.2913 54.9186 30.2783 54.9609 30.2783 55.0195V55.8594C30.2783 56.0482 30.2848 56.2142 30.2979 56.3574C30.3109 56.5007 30.3304 56.6243 30.3564 56.7285C30.3695 56.7546 30.415 56.7839 30.4932 56.8164C30.5713 56.849 30.6559 56.875 30.7471 56.8945C30.8382 56.9141 30.9033 56.9238 30.9424 56.9238C30.9619 56.9238 30.9749 56.9629 30.9814 57.041C30.988 57.1257 30.9847 57.181 30.9717 57.207L29.9268 57.1582L28.8623 57.207ZM31.1768 54.668C31.4372 54.668 31.6585 54.5898 31.8408 54.4336C32.0296 54.2708 32.1761 54.0625 32.2803 53.8086C32.3844 53.5482 32.4365 53.2747 32.4365 52.9883C32.4365 52.6237 32.3682 52.3112 32.2314 52.0508C32.1012 51.7839 31.9255 51.5788 31.7041 51.4355C31.4827 51.2923 31.2386 51.2207 30.9717 51.2207C30.7699 51.2207 30.6038 51.276 30.4736 51.3867C30.3434 51.4909 30.2783 51.6439 30.2783 51.8457V54.043C30.2783 54.2188 30.3727 54.3685 30.5615 54.4922C30.7503 54.6094 30.9554 54.668 31.1768 54.668ZM36.1475 55.0684C35.7568 55.0684 35.3988 54.9707 35.0732 54.7754C34.7477 54.5801 34.4873 54.3164 34.292 53.9844C34.1032 53.6523 34.0088 53.2878 34.0088 52.8906C34.0088 52.487 34.0999 52.1224 34.2822 51.7969C34.471 51.4714 34.7249 51.2142 35.0439 51.0254C35.363 50.8301 35.7243 50.7324 36.1279 50.7324C36.5186 50.7324 36.8734 50.8301 37.1924 51.0254C37.5179 51.2207 37.7751 51.4811 37.9639 51.8066C38.1592 52.1322 38.2568 52.4935 38.2568 52.8906C38.2568 53.2878 38.1624 53.6523 37.9736 53.9844C37.7848 54.3164 37.5309 54.5801 37.2119 54.7754C36.8994 54.9707 36.5446 55.0684 36.1475 55.0684ZM36.2354 54.6875C36.4697 54.6875 36.6748 54.6126 36.8506 54.4629C37.0264 54.3132 37.1631 54.1113 37.2607 53.8574C37.3649 53.6035 37.417 53.3268 37.417 53.0273C37.417 52.6758 37.3519 52.3568 37.2217 52.0703C37.0915 51.7773 36.9189 51.5462 36.7041 51.377C36.4958 51.2012 36.2679 51.1133 36.0205 51.1133C35.7926 51.1133 35.5876 51.1882 35.4053 51.3379C35.2295 51.4811 35.0928 51.6764 34.9951 51.9238C34.8975 52.1647 34.8486 52.4382 34.8486 52.7441C34.8486 53.0957 34.9105 53.4212 35.0342 53.7207C35.1644 54.0137 35.3337 54.248 35.542 54.4238C35.7568 54.5996 35.988 54.6875 36.2354 54.6875ZM41.1084 55.1074C41.0368 55.1074 40.9977 55.0944 40.9912 55.0684C40.9131 54.8926 40.8285 54.7005 40.7373 54.4922C40.6527 54.2773 40.5615 54.0462 40.4639 53.7988C40.262 53.3105 40.0732 52.8711 39.8975 52.4805C39.7217 52.0833 39.5166 51.6764 39.2822 51.2598C39.1976 51.1165 39.0218 51.0449 38.7549 51.0449C38.7288 51.0449 38.7158 51.0026 38.7158 50.918C38.7158 50.8398 38.7288 50.7878 38.7549 50.7617C38.8916 50.7682 39.0446 50.7812 39.2139 50.8008C39.3831 50.8138 39.5524 50.8171 39.7217 50.8105L40.6982 50.7617C40.7113 50.7878 40.7145 50.8431 40.708 50.9277C40.708 51.0059 40.6982 51.0449 40.6787 51.0449C40.3532 51.0449 40.1904 51.1198 40.1904 51.2695C40.1904 51.3151 40.2979 51.5592 40.5127 52.002C40.7275 52.4382 41.0075 53.0469 41.3525 53.8281C41.5804 53.1836 41.7594 52.6758 41.8896 52.3047C42.0264 51.9336 42.0947 51.722 42.0947 51.6699C42.0947 51.6374 42.0752 51.582 42.0361 51.5039C42.0036 51.4258 41.9613 51.3379 41.9092 51.2402C41.8571 51.1621 41.7855 51.11 41.6943 51.084C41.6032 51.0579 41.5088 51.0449 41.4111 51.0449C41.3851 51.0449 41.3721 51.0026 41.3721 50.918C41.3721 50.8398 41.3851 50.7878 41.4111 50.7617C41.5479 50.7682 41.6976 50.778 41.8604 50.791C42.0296 50.804 42.1956 50.8105 42.3584 50.8105C42.5667 50.8105 42.749 50.804 42.9053 50.791C43.068 50.778 43.2048 50.7682 43.3154 50.7617C43.3285 50.8138 43.335 50.8691 43.335 50.9277C43.335 50.9928 43.3252 51.0319 43.3057 51.0449C42.9932 51.0449 42.8369 51.1719 42.8369 51.4258C42.8369 51.556 43.195 52.3568 43.9111 53.8281C44.0413 53.4245 44.1683 53.0534 44.292 52.7148C44.4157 52.3698 44.5166 52.0833 44.5947 51.8555C44.6729 51.6211 44.7119 51.4648 44.7119 51.3867C44.7119 51.1589 44.4971 51.0449 44.0674 51.0449H44.0283C44.0023 51.0449 43.9893 51.0026 43.9893 50.918C43.9893 50.8398 44.0023 50.7878 44.0283 50.7617C44.1715 50.7682 44.3278 50.778 44.4971 50.791C44.6663 50.804 44.8389 50.8105 45.0146 50.8105C45.1709 50.8105 45.3206 50.804 45.4639 50.791C45.6136 50.778 45.7536 50.7682 45.8838 50.7617C45.8968 50.8138 45.9033 50.8626 45.9033 50.9082C45.9033 50.9993 45.887 51.0449 45.8545 51.0449C45.7699 51.0449 45.6559 51.0742 45.5127 51.1328C45.3695 51.1849 45.2751 51.2728 45.2295 51.3965L43.9502 54.8926C43.9046 55.0358 43.8135 55.1074 43.6768 55.1074C43.6051 55.1074 43.5661 55.0944 43.5596 55.0684L42.3584 52.1973L41.3721 54.8926C41.3525 54.9382 41.3167 54.9837 41.2646 55.0293C41.2191 55.0814 41.167 55.1074 41.1084 55.1074ZM48.1299 55.0586C47.7718 55.0586 47.443 54.9642 47.1436 54.7754C46.8441 54.5866 46.6032 54.3359 46.4209 54.0234C46.2451 53.7044 46.1572 53.3496 46.1572 52.959C46.1572 52.5033 46.2419 52.1094 46.4111 51.7773C46.5804 51.4453 46.8115 51.1914 47.1045 51.0156C47.3975 50.8333 47.7262 50.7422 48.0908 50.7422C48.3903 50.7422 48.654 50.8008 48.8818 50.918C49.1097 51.0286 49.2855 51.1719 49.4092 51.3477C49.5264 51.5299 49.611 51.7155 49.6631 51.9043C49.7217 52.0866 49.751 52.2689 49.751 52.4512C49.751 52.5814 49.7314 52.6628 49.6924 52.6953C49.6533 52.7214 49.5785 52.7344 49.4678 52.7344H47.0068C46.9548 52.7344 46.9287 52.7507 46.9287 52.7832C46.9287 53.0566 46.984 53.3203 47.0947 53.5742C47.2054 53.8216 47.3682 54.0267 47.583 54.1895C47.7979 54.3522 48.0615 54.4336 48.374 54.4336C48.6475 54.4336 48.8753 54.3945 49.0576 54.3164C49.2464 54.2318 49.3831 54.1569 49.4678 54.0918L49.5361 54.043C49.5752 54.043 49.5947 54.0853 49.5947 54.1699C49.5947 54.2155 49.5752 54.2741 49.5361 54.3457C49.4059 54.528 49.2139 54.694 48.96 54.8438C48.7061 54.987 48.4294 55.0586 48.1299 55.0586ZM47.0068 52.3242H48.9111C48.9437 52.3242 48.96 52.2917 48.96 52.2266C48.96 52.0833 48.9209 51.9271 48.8428 51.7578C48.7712 51.582 48.6605 51.429 48.5107 51.2988C48.361 51.1686 48.1722 51.1035 47.9443 51.1035C47.736 51.1035 47.557 51.1751 47.4072 51.3184C47.2575 51.4551 47.1436 51.6146 47.0654 51.7969C46.9873 51.9727 46.9482 52.1257 46.9482 52.2559C46.9482 52.3014 46.9678 52.3242 47.0068 52.3242ZM50.3564 55.0293C50.3304 55.0033 50.3174 54.9479 50.3174 54.8633C50.3174 54.7852 50.3304 54.7461 50.3564 54.7461C50.4085 54.7461 50.4801 54.7363 50.5713 54.7168C50.6624 54.6973 50.7471 54.6712 50.8252 54.6387C50.9033 54.6061 50.9456 54.5768 50.9521 54.5508C50.9782 54.4596 50.9945 54.3555 51.001 54.2383C51.014 54.1211 51.0205 53.9974 51.0205 53.8672V52.0215C51.0205 51.7741 50.9749 51.5983 50.8838 51.4941C50.8187 51.416 50.7406 51.3639 50.6494 51.3379C50.5648 51.3118 50.4867 51.2988 50.415 51.2988C50.3499 51.2923 50.3174 51.2826 50.3174 51.2695C50.3174 51.1133 50.3369 51.0319 50.376 51.0254C51.0856 50.9147 51.4958 50.8431 51.6064 50.8105L51.7725 50.7617C51.7985 50.7552 51.8148 50.7812 51.8213 50.8398C51.8278 50.8984 51.8278 50.9408 51.8213 50.9668L51.7627 51.4551C51.8799 51.2793 52.0394 51.1165 52.2412 50.9668C52.4495 50.8105 52.6546 50.7324 52.8564 50.7324C53.234 50.7324 53.488 50.8268 53.6182 51.0156C53.6182 51.2435 53.5824 51.4095 53.5107 51.5137C53.4391 51.6178 53.3512 51.6699 53.2471 51.6699C53.1299 51.6699 53.0225 51.6146 52.9248 51.5039C52.8271 51.3932 52.6937 51.3379 52.5244 51.3379C52.3942 51.3379 52.2705 51.3835 52.1533 51.4746C52.0361 51.5592 51.9417 51.6699 51.8701 51.8066C51.805 51.9368 51.7725 52.0736 51.7725 52.2168V53.6816C51.7725 53.8704 51.779 54.0365 51.792 54.1797C51.805 54.3229 51.8245 54.4466 51.8506 54.5508C51.8636 54.5768 51.9092 54.6061 51.9873 54.6387C52.0654 54.6712 52.1501 54.6973 52.2412 54.7168C52.3389 54.7363 52.4072 54.7461 52.4463 54.7461C52.4658 54.7461 52.4788 54.7852 52.4854 54.8633C52.4919 54.9414 52.4886 54.9967 52.4756 55.0293L51.4209 54.9805L50.3564 55.0293ZM56.04 55.0586C55.682 55.0586 55.3532 54.9642 55.0537 54.7754C54.7542 54.5866 54.5133 54.3359 54.3311 54.0234C54.1553 53.7044 54.0674 53.3496 54.0674 52.959C54.0674 52.5033 54.152 52.1094 54.3213 51.7773C54.4906 51.4453 54.7217 51.1914 55.0146 51.0156C55.3076 50.8333 55.6364 50.7422 56.001 50.7422C56.3005 50.7422 56.5641 50.8008 56.792 50.918C57.0199 51.0286 57.1956 51.1719 57.3193 51.3477C57.4365 51.5299 57.5212 51.7155 57.5732 51.9043C57.6318 52.0866 57.6611 52.2689 57.6611 52.4512C57.6611 52.5814 57.6416 52.6628 57.6025 52.6953C57.5635 52.7214 57.4886 52.7344 57.3779 52.7344H54.917C54.8649 52.7344 54.8389 52.7507 54.8389 52.7832C54.8389 53.0566 54.8942 53.3203 55.0049 53.5742C55.1156 53.8216 55.2783 54.0267 55.4932 54.1895C55.708 54.3522 55.9717 54.4336 56.2842 54.4336C56.5576 54.4336 56.7855 54.3945 56.9678 54.3164C57.1566 54.2318 57.2933 54.1569 57.3779 54.0918L57.4463 54.043C57.4854 54.043 57.5049 54.0853 57.5049 54.1699C57.5049 54.2155 57.4854 54.2741 57.4463 54.3457C57.3161 54.528 57.124 54.694 56.8701 54.8438C56.6162 54.987 56.3395 55.0586 56.04 55.0586ZM54.917 52.3242H56.8213C56.8538 52.3242 56.8701 52.2917 56.8701 52.2266C56.8701 52.0833 56.8311 51.9271 56.7529 51.7578C56.6813 51.582 56.5706 51.429 56.4209 51.2988C56.2712 51.1686 56.0824 51.1035 55.8545 51.1035C55.6462 51.1035 55.4671 51.1751 55.3174 51.3184C55.1676 51.4551 55.0537 51.6146 54.9756 51.7969C54.8975 51.9727 54.8584 52.1257 54.8584 52.2559C54.8584 52.3014 54.8779 52.3242 54.917 52.3242ZM61.3135 55.0586C61.2744 55.0586 61.2549 55.0033 61.2549 54.8926V54.7754C61.2549 54.7428 61.2419 54.7298 61.2158 54.7363C60.8577 54.9382 60.5127 55.0391 60.1807 55.0391C59.8226 55.0391 59.4971 54.9512 59.2041 54.7754C58.9176 54.5931 58.6898 54.3555 58.5205 54.0625C58.3577 53.763 58.2764 53.4375 58.2764 53.0859C58.2764 52.7734 58.335 52.474 58.4521 52.1875C58.5758 51.901 58.7386 51.6471 58.9404 51.4258C59.1488 51.1979 59.3831 51.0221 59.6436 50.8984C59.904 50.7682 60.1742 50.7031 60.4541 50.7031C60.734 50.7031 60.9782 50.7585 61.1865 50.8691C61.2321 50.8691 61.2549 50.8105 61.2549 50.6934V49.6387C61.2549 49.4173 61.2354 49.209 61.1963 49.0137C61.1702 48.9095 61.0042 48.8574 60.6982 48.8574H60.6104C60.5713 48.8574 60.5518 48.8216 60.5518 48.75C60.5518 48.6458 60.5713 48.5938 60.6104 48.5938C60.9749 48.5612 61.2614 48.5124 61.4697 48.4473C61.6846 48.3822 61.8376 48.3171 61.9287 48.252L61.9678 48.2227H61.9873C62.0133 48.2227 62.0394 48.2422 62.0654 48.2812C62.0915 48.3138 62.1077 48.3464 62.1143 48.3789C62.0426 48.5938 62.0068 48.877 62.0068 49.2285V53.623C62.0068 53.929 62.0264 54.1764 62.0654 54.3652C62.085 54.4303 62.1403 54.4727 62.2314 54.4922C62.3291 54.5052 62.43 54.5182 62.5342 54.5312L62.6221 54.541C62.6416 54.5475 62.6514 54.5866 62.6514 54.6582C62.6514 54.7559 62.6318 54.8047 62.5928 54.8047C62.3779 54.8177 62.1566 54.8535 61.9287 54.9121C61.7008 54.9642 61.5251 55.0065 61.4014 55.0391L61.3135 55.0586ZM60.5518 54.5605C60.7731 54.5605 60.9456 54.5117 61.0693 54.4141C61.193 54.3099 61.2549 54.1732 61.2549 54.0039V51.6797C61.2549 51.543 61.18 51.416 61.0303 51.2988C60.887 51.1751 60.6527 51.1133 60.3271 51.1133C60.0798 51.1133 59.8649 51.1914 59.6826 51.3477C59.5003 51.5039 59.3604 51.7122 59.2627 51.9727C59.165 52.2266 59.1162 52.5033 59.1162 52.8027C59.1162 53.1152 59.1715 53.4049 59.2822 53.6719C59.3994 53.9388 59.5654 54.1536 59.7803 54.3164C59.9951 54.4792 60.2523 54.5605 60.5518 54.5605ZM69.5264 55.0586C69.305 55.0586 69.0869 55.0391 68.8721 55C68.6637 54.9544 68.527 54.9316 68.4619 54.9316C68.4033 54.9316 68.3317 54.9512 68.2471 54.9902C68.1624 55.0228 68.1104 55.0391 68.0908 55.0391C68.0648 55.0391 68.0225 55.0293 67.9639 55.0098C67.9118 54.9902 67.8857 54.9674 67.8857 54.9414C67.8857 54.9023 67.9053 54.7786 67.9443 54.5703C67.9834 54.3555 68.0029 54.0592 68.0029 53.6816V49.6387C68.0029 49.4173 67.9834 49.209 67.9443 49.0137C67.9183 48.9095 67.7523 48.8574 67.4463 48.8574H67.3584C67.3193 48.8574 67.2998 48.8216 67.2998 48.75C67.2998 48.6458 67.3193 48.5938 67.3584 48.5938C67.723 48.5612 68.0094 48.5124 68.2178 48.4473C68.4326 48.3822 68.5856 48.3171 68.6768 48.252L68.7158 48.2227H68.7354C68.7614 48.2227 68.7874 48.2422 68.8135 48.2812C68.8395 48.3138 68.8558 48.3464 68.8623 48.3789C68.7907 48.5938 68.7549 48.877 68.7549 49.2285V50.9375C68.7549 51.0091 68.7646 51.0449 68.7842 51.0449C68.7907 51.0449 68.7939 51.0449 68.7939 51.0449C68.8005 51.0384 68.807 51.0352 68.8135 51.0352C68.9046 50.9701 69.0446 50.9017 69.2334 50.8301C69.4222 50.7585 69.5882 50.7227 69.7314 50.7227C70.1481 50.7227 70.5062 50.8236 70.8057 51.0254C71.1051 51.2207 71.333 51.4714 71.4893 51.7773C71.652 52.0833 71.7334 52.3991 71.7334 52.7246C71.7334 53.0371 71.6715 53.3333 71.5479 53.6133C71.4242 53.8932 71.2549 54.1439 71.04 54.3652C70.8317 54.5801 70.5941 54.7493 70.3271 54.873C70.0667 54.9967 69.7998 55.0586 69.5264 55.0586ZM69.7119 54.6484C69.9593 54.6484 70.1709 54.5671 70.3467 54.4043C70.5225 54.2415 70.6559 54.0299 70.7471 53.7695C70.8447 53.5026 70.8936 53.2227 70.8936 52.9297C70.8936 52.4154 70.7568 51.9987 70.4834 51.6797C70.2165 51.3607 69.8617 51.2012 69.4189 51.2012C69.2367 51.2012 69.0804 51.2533 68.9502 51.3574C68.82 51.4551 68.7549 51.5983 68.7549 51.7871V54.0625C68.7549 54.2643 68.8493 54.4141 69.0381 54.5117C69.2334 54.6029 69.458 54.6484 69.7119 54.6484ZM72.9834 57.2168C72.8467 57.2168 72.7458 57.1745 72.6807 57.0898C72.6156 57.0052 72.583 56.9206 72.583 56.8359C72.583 56.6992 72.6286 56.5951 72.7197 56.5234C73.2601 56.5234 73.6182 56.2435 73.7939 55.6836C73.8265 55.5859 73.8656 55.4688 73.9111 55.332C73.9567 55.1953 73.9925 55.0846 74.0186 55L72.6221 51.582C72.5895 51.5039 72.557 51.4388 72.5244 51.3867C72.4919 51.3281 72.4593 51.2826 72.4268 51.25C72.3682 51.1914 72.277 51.1426 72.1533 51.1035C72.0361 51.0645 71.9417 51.0449 71.8701 51.0449C71.8441 51.0449 71.8311 51.0026 71.8311 50.918C71.8311 50.8398 71.8441 50.7878 71.8701 50.7617C72.0459 50.7682 72.2184 50.778 72.3877 50.791C72.5635 50.7975 72.7425 50.8008 72.9248 50.8008C73.1331 50.8008 73.3122 50.7975 73.4619 50.791C73.6117 50.778 73.7484 50.7682 73.8721 50.7617C73.8851 50.8138 73.8916 50.8626 73.8916 50.9082C73.8916 50.9993 73.8786 51.0449 73.8525 51.0449C73.8265 51.0449 73.7777 51.0547 73.7061 51.0742C73.641 51.0938 73.5758 51.1198 73.5107 51.1523C73.4456 51.1784 73.4066 51.2109 73.3936 51.25V51.2695C73.3936 51.3802 73.7419 52.2298 74.4385 53.8184L75.1807 51.6797C75.2262 51.5495 75.249 51.4486 75.249 51.377C75.249 51.2793 75.1969 51.2012 75.0928 51.1426C74.9951 51.0775 74.8617 51.0449 74.6924 51.0449C74.6663 51.0449 74.6533 51.0026 74.6533 50.918C74.6533 50.8398 74.6663 50.7878 74.6924 50.7617C74.777 50.7682 74.904 50.778 75.0732 50.791C75.2425 50.804 75.4053 50.8105 75.5615 50.8105C75.7048 50.8105 75.861 50.804 76.0303 50.791C76.1995 50.778 76.3265 50.7682 76.4111 50.7617C76.4242 50.8138 76.4307 50.8626 76.4307 50.9082C76.4307 50.9993 76.4176 51.0449 76.3916 51.0449C76.307 51.0449 76.193 51.0742 76.0498 51.1328C75.9066 51.1914 75.8089 51.2858 75.7568 51.416L74.0088 56.1328C73.859 56.5365 73.6898 56.8164 73.501 56.9727C73.3122 57.1354 73.1396 57.2168 72.9834 57.2168ZM78.6572 55.0293C78.6312 55.0033 78.6182 54.9479 78.6182 54.8633C78.6182 54.7852 78.6312 54.7461 78.6572 54.7461C78.7093 54.7461 78.7809 54.7363 78.8721 54.7168C78.9632 54.6973 79.0479 54.6712 79.126 54.6387C79.2041 54.6061 79.2464 54.5768 79.2529 54.5508C79.279 54.4596 79.2952 54.3555 79.3018 54.2383C79.3148 54.1211 79.3213 53.9974 79.3213 53.8672V49.6387C79.3213 49.4173 79.3018 49.209 79.2627 49.0137C79.2367 48.9095 79.0706 48.8574 78.7646 48.8574H78.6768C78.6377 48.8574 78.6182 48.8216 78.6182 48.75C78.6182 48.6458 78.6377 48.5938 78.6768 48.5938C79.0088 48.5612 79.2887 48.5091 79.5166 48.4375C79.7445 48.3594 79.9007 48.2975 79.9854 48.252L80.0342 48.2227H80.0537C80.0798 48.2227 80.1058 48.2422 80.1318 48.2812C80.1579 48.3138 80.1742 48.3464 80.1807 48.3789C80.109 48.5938 80.0732 48.877 80.0732 49.2285V52.6465C80.2035 52.6204 80.2848 52.5911 80.3174 52.5586L80.7666 52.1777L81.1182 51.8848C81.2288 51.7936 81.3232 51.709 81.4014 51.6309C81.486 51.5527 81.5283 51.4811 81.5283 51.416C81.5283 51.3314 81.4567 51.2858 81.3135 51.2793C81.1833 51.2728 81.1084 51.2598 81.0889 51.2402C81.0368 51.11 81.04 51.0352 81.0986 51.0156H81.8701C82.098 51.0156 82.2835 51.0091 82.4268 50.9961C82.57 50.9831 82.7425 50.9733 82.9443 50.9668C82.9834 50.9733 82.9997 51.0221 82.9932 51.1133C82.9867 51.1979 82.9671 51.2402 82.9346 51.2402C82.8825 51.2402 82.8076 51.25 82.71 51.2695C82.6188 51.2891 82.5309 51.3118 82.4463 51.3379C82.3617 51.3574 82.2998 51.3802 82.2607 51.4062C82.1891 51.4453 82.0654 51.5299 81.8896 51.6602C81.7204 51.7904 81.5381 51.9401 81.3428 52.1094C81.1475 52.2721 80.9717 52.4316 80.8154 52.5879C81.3167 53.1217 81.7074 53.5514 81.9873 53.877C82.2738 54.2025 82.4593 54.4043 82.5439 54.4824C82.6546 54.5736 82.7946 54.6452 82.9639 54.6973C83.1331 54.7428 83.2536 54.7656 83.3252 54.7656C83.3512 54.7656 83.3643 54.8177 83.3643 54.9219C83.3643 54.987 83.361 55.0228 83.3545 55.0293L82.29 54.9805L81.2744 55.0293C81.2484 55.0033 81.2354 54.9512 81.2354 54.873C81.2354 54.8014 81.2484 54.7656 81.2744 54.7656C81.3395 54.7656 81.4144 54.7526 81.499 54.7266C81.5837 54.7005 81.626 54.6712 81.626 54.6387C81.626 54.6257 81.6227 54.6159 81.6162 54.6094L80.1904 53.0664L80.0732 53.0957V53.6816C80.0732 53.8965 80.0798 54.0788 80.0928 54.2285C80.1123 54.3717 80.1318 54.4792 80.1514 54.5508C80.1644 54.5768 80.21 54.6061 80.2881 54.6387C80.3662 54.6712 80.4508 54.6973 80.542 54.7168C80.6331 54.7363 80.6982 54.7461 80.7373 54.7461C80.7568 54.7461 80.7699 54.7852 80.7764 54.8633C80.7829 54.9414 80.7796 54.9967 80.7666 55.0293L79.7217 54.9805L78.6572 55.0293ZM83.6768 55.0293C83.6507 55.0033 83.6377 54.9479 83.6377 54.8633C83.6377 54.7852 83.6507 54.7461 83.6768 54.7461C83.7288 54.7461 83.8005 54.7363 83.8916 54.7168C83.9827 54.6973 84.0674 54.6712 84.1455 54.6387C84.2236 54.6061 84.266 54.5768 84.2725 54.5508C84.2985 54.4596 84.3148 54.3555 84.3213 54.2383C84.3343 54.1211 84.3408 53.9974 84.3408 53.8672V52.0215C84.3408 51.7741 84.2952 51.5983 84.2041 51.4941C84.139 51.4095 84.0609 51.3574 83.9697 51.3379C83.8786 51.3118 83.8005 51.2988 83.7354 51.2988C83.6702 51.2923 83.6377 51.2826 83.6377 51.2695C83.6377 51.1133 83.6572 51.0319 83.6963 51.0254C84.0413 50.9733 84.305 50.931 84.4873 50.8984C84.6696 50.8594 84.8324 50.8236 84.9756 50.791L85.0928 50.7617C85.1188 50.7552 85.1351 50.7812 85.1416 50.8398C85.1481 50.8984 85.1481 50.9408 85.1416 50.9668C85.1286 51.097 85.1156 51.2207 85.1025 51.3379C85.096 51.4551 85.0928 51.5658 85.0928 51.6699V53.6816C85.0928 53.8704 85.0993 54.0365 85.1123 54.1797C85.1253 54.3229 85.1449 54.4466 85.1709 54.5508C85.1839 54.5768 85.2295 54.6061 85.3076 54.6387C85.3857 54.6712 85.4704 54.6973 85.5615 54.7168C85.6527 54.7363 85.7178 54.7461 85.7568 54.7461C85.7764 54.7461 85.7894 54.7852 85.7959 54.8633C85.8024 54.9414 85.7992 54.9967 85.7861 55.0293L84.7412 54.9805L83.6768 55.0293ZM84.6436 49.6973C84.5133 49.6973 84.3994 49.6484 84.3018 49.5508C84.2041 49.4531 84.1553 49.3392 84.1553 49.209C84.1553 49.0723 84.2041 48.9583 84.3018 48.8672C84.3994 48.7695 84.5133 48.7207 84.6436 48.7207C84.7803 48.7207 84.8942 48.7695 84.9854 48.8672C85.083 48.9583 85.1318 49.0723 85.1318 49.209C85.1318 49.3392 85.083 49.4531 84.9854 49.5508C84.8942 49.6484 84.7803 49.6973 84.6436 49.6973ZM88.0029 55.0684C87.6774 55.0684 87.404 54.9609 87.1826 54.7461C86.9678 54.5312 86.8604 54.2253 86.8604 53.8281V51.3477H86.2939C86.2614 51.3477 86.2451 51.2793 86.2451 51.1426C86.2451 51.1035 86.2484 51.0807 86.2549 51.0742C86.4502 50.9831 86.6553 50.8105 86.8701 50.5566C87.0199 50.3809 87.1305 50.2279 87.2021 50.0977C87.2803 49.9674 87.3193 49.8893 87.3193 49.8633C87.5146 49.8633 87.6123 49.8796 87.6123 49.9121V50.8789L88.3838 50.8887H88.9307C88.9827 50.8887 89.0088 50.918 89.0088 50.9766C89.0088 51.1003 88.9762 51.224 88.9111 51.3477H87.6123V53.7402C87.6123 54.0007 87.6774 54.209 87.8076 54.3652C87.9443 54.5215 88.1201 54.5996 88.335 54.5996C88.5368 54.5996 88.7386 54.5378 88.9404 54.4141C88.96 54.401 88.9893 54.4303 89.0283 54.502C89.0674 54.5671 89.0837 54.6029 89.0771 54.6094C88.9795 54.7135 88.8298 54.8177 88.6279 54.9219C88.4261 55.0195 88.2178 55.0684 88.0029 55.0684ZM91.4795 55.0586C91.1214 55.0586 90.7926 54.9642 90.4932 54.7754C90.1937 54.5866 89.9528 54.3359 89.7705 54.0234C89.5947 53.7044 89.5068 53.3496 89.5068 52.959C89.5068 52.5033 89.5915 52.1094 89.7607 51.7773C89.93 51.4453 90.1611 51.1914 90.4541 51.0156C90.7471 50.8333 91.0758 50.7422 91.4404 50.7422C91.7399 50.7422 92.0036 50.8008 92.2314 50.918C92.4593 51.0286 92.6351 51.1719 92.7588 51.3477C92.876 51.5299 92.9606 51.7155 93.0127 51.9043C93.0713 52.0866 93.1006 52.2689 93.1006 52.4512C93.1006 52.5814 93.0811 52.6628 93.042 52.6953C93.0029 52.7214 92.9281 52.7344 92.8174 52.7344H90.3564C90.3044 52.7344 90.2783 52.7507 90.2783 52.7832C90.2783 53.0566 90.3337 53.3203 90.4443 53.5742C90.555 53.8216 90.7178 54.0267 90.9326 54.1895C91.1475 54.3522 91.4111 54.4336 91.7236 54.4336C91.9971 54.4336 92.2249 54.3945 92.4072 54.3164C92.596 54.2318 92.7327 54.1569 92.8174 54.0918L92.8857 54.043C92.9248 54.043 92.9443 54.0853 92.9443 54.1699C92.9443 54.2155 92.9248 54.2741 92.8857 54.3457C92.7555 54.528 92.5635 54.694 92.3096 54.8438C92.0557 54.987 91.779 55.0586 91.4795 55.0586ZM90.3564 52.3242H92.2607C92.2933 52.3242 92.3096 52.2917 92.3096 52.2266C92.3096 52.0833 92.2705 51.9271 92.1924 51.7578C92.1208 51.582 92.0101 51.429 91.8604 51.2988C91.7106 51.1686 91.5218 51.1035 91.2939 51.1035C91.0856 51.1035 90.9066 51.1751 90.7568 51.3184C90.6071 51.4551 90.4932 51.6146 90.415 51.7969C90.3369 51.9727 90.2979 52.1257 90.2979 52.2559C90.2979 52.3014 90.3174 52.3242 90.3564 52.3242ZM97.915 55.0586C97.557 55.0586 97.2282 54.9642 96.9287 54.7754C96.6292 54.5866 96.3883 54.3359 96.2061 54.0234C96.0303 53.7044 95.9424 53.3496 95.9424 52.959C95.9424 52.5553 96.014 52.1875 96.1572 51.8555C96.307 51.5169 96.5218 51.2467 96.8018 51.0449C97.0882 50.8431 97.4333 50.7422 97.8369 50.7422C98.5531 50.7422 99.0479 50.9082 99.3213 51.2402C99.3213 51.6764 99.2008 51.8945 98.96 51.8945C98.8493 51.8945 98.7646 51.8717 98.7061 51.8262C98.6475 51.7741 98.5726 51.6829 98.4814 51.5527C98.2796 51.2533 98.0387 51.1035 97.7588 51.1035C97.4919 51.1035 97.2477 51.2305 97.0264 51.4844C96.8115 51.7383 96.7041 52.1159 96.7041 52.6172C96.7041 53.138 96.8311 53.571 97.085 53.916C97.3454 54.2611 97.7035 54.4336 98.1592 54.4336C98.4326 54.4336 98.6605 54.3945 98.8428 54.3164C99.0316 54.2318 99.1683 54.1569 99.2529 54.0918L99.3213 54.043C99.3604 54.043 99.3799 54.0853 99.3799 54.1699C99.3799 54.2155 99.3604 54.2741 99.3213 54.3457C99.1911 54.528 98.999 54.694 98.7451 54.8438C98.4912 54.987 98.2145 55.0586 97.915 55.0586ZM102.036 55.0684C101.646 55.0684 101.287 54.9707 100.962 54.7754C100.636 54.5801 100.376 54.3164 100.181 53.9844C99.9919 53.6523 99.8975 53.2878 99.8975 52.8906C99.8975 52.487 99.9886 52.1224 100.171 51.7969C100.36 51.4714 100.614 51.2142 100.933 51.0254C101.252 50.8301 101.613 50.7324 102.017 50.7324C102.407 50.7324 102.762 50.8301 103.081 51.0254C103.407 51.2207 103.664 51.4811 103.853 51.8066C104.048 52.1322 104.146 52.4935 104.146 52.8906C104.146 53.2878 104.051 53.6523 103.862 53.9844C103.674 54.3164 103.42 54.5801 103.101 54.7754C102.788 54.9707 102.433 55.0684 102.036 55.0684ZM102.124 54.6875C102.358 54.6875 102.563 54.6126 102.739 54.4629C102.915 54.3132 103.052 54.1113 103.149 53.8574C103.254 53.6035 103.306 53.3268 103.306 53.0273C103.306 52.6758 103.241 52.3568 103.11 52.0703C102.98 51.7773 102.808 51.5462 102.593 51.377C102.384 51.2012 102.157 51.1133 101.909 51.1133C101.681 51.1133 101.476 51.1882 101.294 51.3379C101.118 51.4811 100.981 51.6764 100.884 51.9238C100.786 52.1647 100.737 52.4382 100.737 52.7441C100.737 53.0957 100.799 53.4212 100.923 53.7207C101.053 54.0137 101.222 54.248 101.431 54.4238C101.646 54.5996 101.877 54.6875 102.124 54.6875ZM104.839 55.0293C104.813 55.0033 104.8 54.9479 104.8 54.8633C104.8 54.7852 104.813 54.7461 104.839 54.7461C104.891 54.7461 104.963 54.7363 105.054 54.7168C105.145 54.6973 105.229 54.6712 105.308 54.6387C105.386 54.6061 105.428 54.5768 105.435 54.5508C105.461 54.4596 105.477 54.3555 105.483 54.2383C105.496 54.1211 105.503 53.9974 105.503 53.8672V52.0215C105.503 51.7741 105.457 51.5983 105.366 51.4941C105.301 51.416 105.223 51.3639 105.132 51.3379C105.047 51.3118 104.969 51.2988 104.897 51.2988C104.832 51.2923 104.8 51.2826 104.8 51.2695C104.8 51.1133 104.819 51.0319 104.858 51.0254C105.203 50.9733 105.483 50.9277 105.698 50.8887C105.913 50.8431 106.047 50.8138 106.099 50.8008L106.255 50.7617C106.281 50.7552 106.297 50.7812 106.304 50.8398C106.31 50.8984 106.31 50.9408 106.304 50.9668C106.291 51.0579 106.281 51.1361 106.274 51.2012C106.268 51.2663 106.265 51.3184 106.265 51.3574C106.265 51.3835 106.271 51.3965 106.284 51.3965C106.291 51.3965 106.3 51.39 106.313 51.377C106.463 51.2207 106.665 51.0742 106.919 50.9375C107.179 50.7943 107.427 50.7227 107.661 50.7227C108.117 50.7227 108.436 50.8854 108.618 51.2109C108.8 51.5365 108.892 52.0638 108.892 52.793V53.6816C108.892 53.8704 108.898 54.0365 108.911 54.1797C108.924 54.3229 108.944 54.4466 108.97 54.5508C108.983 54.5768 109.028 54.6061 109.106 54.6387C109.185 54.6712 109.269 54.6973 109.36 54.7168C109.451 54.7363 109.517 54.7461 109.556 54.7461C109.575 54.7461 109.588 54.7852 109.595 54.8633C109.601 54.9414 109.598 54.9967 109.585 55.0293L108.54 54.9805L107.515 55.0293C107.489 55.0033 107.476 54.9479 107.476 54.8633C107.476 54.7852 107.489 54.7461 107.515 54.7461C107.567 54.7461 107.635 54.7363 107.72 54.7168C107.804 54.6973 107.882 54.6712 107.954 54.6387C108.026 54.6061 108.065 54.5768 108.071 54.5508C108.097 54.4596 108.114 54.3555 108.12 54.2383C108.133 54.1211 108.14 53.9974 108.14 53.8672V52.8906C108.14 52.2852 108.062 51.8717 107.905 51.6504C107.749 51.429 107.495 51.3184 107.144 51.3184C107.007 51.3184 106.87 51.3574 106.733 51.4355C106.597 51.5072 106.483 51.5918 106.392 51.6895C106.3 51.7871 106.255 51.8783 106.255 51.9629V53.6816C106.255 53.8704 106.261 54.0365 106.274 54.1797C106.287 54.3229 106.307 54.4466 106.333 54.5508C106.346 54.5768 106.392 54.6061 106.47 54.6387C106.548 54.6712 106.632 54.6973 106.724 54.7168C106.815 54.7363 106.88 54.7461 106.919 54.7461C106.938 54.7461 106.951 54.7852 106.958 54.8633C106.965 54.9414 106.961 54.9967 106.948 55.0293L105.903 54.9805L104.839 55.0293ZM110.142 55.0293C110.116 55.0033 110.103 54.9479 110.103 54.8633C110.103 54.7852 110.116 54.7461 110.142 54.7461C110.194 54.7461 110.265 54.7363 110.356 54.7168C110.448 54.6973 110.532 54.6712 110.61 54.6387C110.688 54.6061 110.731 54.5768 110.737 54.5508C110.763 54.4596 110.78 54.3555 110.786 54.2383C110.799 54.1211 110.806 53.9974 110.806 53.8672V52.0215C110.806 51.7741 110.76 51.5983 110.669 51.4941C110.604 51.416 110.526 51.3639 110.435 51.3379C110.35 51.3118 110.272 51.2988 110.2 51.2988C110.135 51.2923 110.103 51.2826 110.103 51.2695C110.103 51.1133 110.122 51.0319 110.161 51.0254C110.506 50.9733 110.786 50.9277 111.001 50.8887C111.216 50.8431 111.349 50.8138 111.401 50.8008L111.558 50.7617C111.584 50.7552 111.6 50.7812 111.606 50.8398C111.613 50.8984 111.613 50.9408 111.606 50.9668C111.593 51.0579 111.584 51.1361 111.577 51.2012C111.571 51.2663 111.567 51.3184 111.567 51.3574C111.567 51.3835 111.574 51.3965 111.587 51.3965C111.593 51.3965 111.603 51.39 111.616 51.377C111.766 51.2207 111.968 51.0742 112.222 50.9375C112.482 50.7943 112.729 50.7227 112.964 50.7227C113.42 50.7227 113.739 50.8854 113.921 51.2109C114.103 51.5365 114.194 52.0638 114.194 52.793V53.6816C114.194 53.8704 114.201 54.0365 114.214 54.1797C114.227 54.3229 114.246 54.4466 114.272 54.5508C114.285 54.5768 114.331 54.6061 114.409 54.6387C114.487 54.6712 114.572 54.6973 114.663 54.7168C114.754 54.7363 114.819 54.7461 114.858 54.7461C114.878 54.7461 114.891 54.7852 114.897 54.8633C114.904 54.9414 114.901 54.9967 114.888 55.0293L113.843 54.9805L112.817 55.0293C112.791 55.0033 112.778 54.9479 112.778 54.8633C112.778 54.7852 112.791 54.7461 112.817 54.7461C112.869 54.7461 112.938 54.7363 113.022 54.7168C113.107 54.6973 113.185 54.6712 113.257 54.6387C113.328 54.6061 113.368 54.5768 113.374 54.5508C113.4 54.4596 113.416 54.3555 113.423 54.2383C113.436 54.1211 113.442 53.9974 113.442 53.8672V52.8906C113.442 52.2852 113.364 51.8717 113.208 51.6504C113.052 51.429 112.798 51.3184 112.446 51.3184C112.31 51.3184 112.173 51.3574 112.036 51.4355C111.899 51.5072 111.785 51.5918 111.694 51.6895C111.603 51.7871 111.558 51.8783 111.558 51.9629V53.6816C111.558 53.8704 111.564 54.0365 111.577 54.1797C111.59 54.3229 111.61 54.4466 111.636 54.5508C111.649 54.5768 111.694 54.6061 111.772 54.6387C111.851 54.6712 111.935 54.6973 112.026 54.7168C112.118 54.7363 112.183 54.7461 112.222 54.7461C112.241 54.7461 112.254 54.7852 112.261 54.8633C112.267 54.9414 112.264 54.9967 112.251 55.0293L111.206 54.9805L110.142 55.0293ZM117.456 55.0586C117.098 55.0586 116.769 54.9642 116.47 54.7754C116.17 54.5866 115.929 54.3359 115.747 54.0234C115.571 53.7044 115.483 53.3496 115.483 52.959C115.483 52.5033 115.568 52.1094 115.737 51.7773C115.907 51.4453 116.138 51.1914 116.431 51.0156C116.724 50.8333 117.052 50.7422 117.417 50.7422C117.716 50.7422 117.98 50.8008 118.208 50.918C118.436 51.0286 118.612 51.1719 118.735 51.3477C118.853 51.5299 118.937 51.7155 118.989 51.9043C119.048 52.0866 119.077 52.2689 119.077 52.4512C119.077 52.5814 119.058 52.6628 119.019 52.6953C118.979 52.7214 118.905 52.7344 118.794 52.7344H116.333C116.281 52.7344 116.255 52.7507 116.255 52.7832C116.255 53.0566 116.31 53.3203 116.421 53.5742C116.532 53.8216 116.694 54.0267 116.909 54.1895C117.124 54.3522 117.388 54.4336 117.7 54.4336C117.974 54.4336 118.201 54.3945 118.384 54.3164C118.573 54.2318 118.709 54.1569 118.794 54.0918L118.862 54.043C118.901 54.043 118.921 54.0853 118.921 54.1699C118.921 54.2155 118.901 54.2741 118.862 54.3457C118.732 54.528 118.54 54.694 118.286 54.8438C118.032 54.987 117.756 55.0586 117.456 55.0586ZM116.333 52.3242H118.237C118.27 52.3242 118.286 52.2917 118.286 52.2266C118.286 52.0833 118.247 51.9271 118.169 51.7578C118.097 51.582 117.987 51.429 117.837 51.2988C117.687 51.1686 117.498 51.1035 117.271 51.1035C117.062 51.1035 116.883 51.1751 116.733 51.3184C116.584 51.4551 116.47 51.6146 116.392 51.7969C116.313 51.9727 116.274 52.1257 116.274 52.2559C116.274 52.3014 116.294 52.3242 116.333 52.3242ZM121.655 55.0586C121.297 55.0586 120.968 54.9642 120.669 54.7754C120.369 54.5866 120.129 54.3359 119.946 54.0234C119.771 53.7044 119.683 53.3496 119.683 52.959C119.683 52.5553 119.754 52.1875 119.897 51.8555C120.047 51.5169 120.262 51.2467 120.542 51.0449C120.828 50.8431 121.174 50.7422 121.577 50.7422C122.293 50.7422 122.788 50.9082 123.062 51.2402C123.062 51.6764 122.941 51.8945 122.7 51.8945C122.59 51.8945 122.505 51.8717 122.446 51.8262C122.388 51.7741 122.313 51.6829 122.222 51.5527C122.02 51.2533 121.779 51.1035 121.499 51.1035C121.232 51.1035 120.988 51.2305 120.767 51.4844C120.552 51.7383 120.444 52.1159 120.444 52.6172C120.444 53.138 120.571 53.571 120.825 53.916C121.086 54.2611 121.444 54.4336 121.899 54.4336C122.173 54.4336 122.401 54.3945 122.583 54.3164C122.772 54.2318 122.909 54.1569 122.993 54.0918L123.062 54.043C123.101 54.043 123.12 54.0853 123.12 54.1699C123.12 54.2155 123.101 54.2741 123.062 54.3457C122.931 54.528 122.739 54.694 122.485 54.8438C122.231 54.987 121.955 55.0586 121.655 55.0586ZM125.2 55.0684C124.875 55.0684 124.601 54.9609 124.38 54.7461C124.165 54.5312 124.058 54.2253 124.058 53.8281V51.3477H123.491C123.459 51.3477 123.442 51.2793 123.442 51.1426C123.442 51.1035 123.446 51.0807 123.452 51.0742C123.647 50.9831 123.853 50.8105 124.067 50.5566C124.217 50.3809 124.328 50.2279 124.399 50.0977C124.478 49.9674 124.517 49.8893 124.517 49.8633C124.712 49.8633 124.81 49.8796 124.81 49.9121V50.8789L125.581 50.8887H126.128C126.18 50.8887 126.206 50.918 126.206 50.9766C126.206 51.1003 126.174 51.224 126.108 51.3477H124.81V53.7402C124.81 54.0007 124.875 54.209 125.005 54.3652C125.142 54.5215 125.317 54.5996 125.532 54.5996C125.734 54.5996 125.936 54.5378 126.138 54.4141C126.157 54.401 126.187 54.4303 126.226 54.502C126.265 54.5671 126.281 54.6029 126.274 54.6094C126.177 54.7135 126.027 54.8177 125.825 54.9219C125.623 55.0195 125.415 55.0684 125.2 55.0684Z" fill="#00F6FF"/>
<path id="from" d="M143.571 55.0293C143.552 55.0098 143.539 54.9577 143.532 54.873C143.532 54.7884 143.545 54.7461 143.571 54.7461C143.623 54.7461 143.692 54.7363 143.776 54.7168C143.861 54.6973 143.939 54.6712 144.011 54.6387C144.089 54.6061 144.131 54.5768 144.138 54.5508C144.17 54.4206 144.193 54.2839 144.206 54.1406C144.226 53.9974 144.235 53.8444 144.235 53.6816V51.4355C144.235 51.39 144.219 51.3672 144.187 51.3672H143.669C143.649 51.3672 143.64 51.3477 143.64 51.3086C143.64 51.25 143.688 51.1686 143.786 51.0645C143.89 50.9603 144.004 50.9082 144.128 50.9082H144.187C144.219 50.9082 144.235 50.8887 144.235 50.8496V50.7227C144.235 50.3776 144.291 50.0553 144.401 49.7559C144.512 49.4564 144.659 49.1895 144.841 48.9551C145.03 48.7207 145.238 48.5384 145.466 48.4082C145.7 48.278 145.938 48.2129 146.179 48.2129C146.654 48.2129 146.963 48.3398 147.106 48.5938C147.106 49.0039 146.989 49.209 146.755 49.209C146.683 49.209 146.618 49.1797 146.56 49.1211C146.501 49.056 146.439 48.9844 146.374 48.9062C146.315 48.8216 146.244 48.75 146.159 48.6914C146.081 48.6263 145.987 48.5938 145.876 48.5938C145.687 48.5938 145.524 48.6751 145.388 48.8379C145.251 49.0007 145.147 49.2155 145.075 49.4824C145.01 49.7493 144.978 50.0423 144.978 50.3613V50.8594C144.978 50.8919 144.994 50.9082 145.026 50.9082H146.11C146.143 50.9082 146.159 50.931 146.159 50.9766C146.159 51.0807 146.12 51.2109 146.042 51.3672H145.036C144.997 51.3672 144.978 51.3867 144.978 51.4258V53.6816C144.978 54.0332 145.007 54.3229 145.065 54.5508C145.078 54.5768 145.121 54.6061 145.192 54.6387C145.264 54.6712 145.342 54.6973 145.427 54.7168C145.511 54.7363 145.573 54.7461 145.612 54.7461C145.632 54.7461 145.645 54.7852 145.651 54.8633C145.658 54.9414 145.655 54.9967 145.642 55.0293L144.597 54.9805L143.571 55.0293ZM146.579 55.0293C146.553 55.0033 146.54 54.9479 146.54 54.8633C146.54 54.7852 146.553 54.7461 146.579 54.7461C146.631 54.7461 146.703 54.7363 146.794 54.7168C146.885 54.6973 146.97 54.6712 147.048 54.6387C147.126 54.6061 147.168 54.5768 147.175 54.5508C147.201 54.4596 147.217 54.3555 147.224 54.2383C147.237 54.1211 147.243 53.9974 147.243 53.8672V52.0215C147.243 51.7741 147.198 51.5983 147.106 51.4941C147.041 51.416 146.963 51.3639 146.872 51.3379C146.787 51.3118 146.709 51.2988 146.638 51.2988C146.573 51.2923 146.54 51.2826 146.54 51.2695C146.54 51.1133 146.56 51.0319 146.599 51.0254C147.308 50.9147 147.718 50.8431 147.829 50.8105L147.995 50.7617C148.021 50.7552 148.037 50.7812 148.044 50.8398C148.05 50.8984 148.05 50.9408 148.044 50.9668L147.985 51.4551C148.103 51.2793 148.262 51.1165 148.464 50.9668C148.672 50.8105 148.877 50.7324 149.079 50.7324C149.457 50.7324 149.711 50.8268 149.841 51.0156C149.841 51.2435 149.805 51.4095 149.733 51.5137C149.662 51.6178 149.574 51.6699 149.47 51.6699C149.353 51.6699 149.245 51.6146 149.147 51.5039C149.05 51.3932 148.916 51.3379 148.747 51.3379C148.617 51.3379 148.493 51.3835 148.376 51.4746C148.259 51.5592 148.164 51.6699 148.093 51.8066C148.028 51.9368 147.995 52.0736 147.995 52.2168V53.6816C147.995 53.8704 148.002 54.0365 148.015 54.1797C148.028 54.3229 148.047 54.4466 148.073 54.5508C148.086 54.5768 148.132 54.6061 148.21 54.6387C148.288 54.6712 148.373 54.6973 148.464 54.7168C148.562 54.7363 148.63 54.7461 148.669 54.7461C148.688 54.7461 148.701 54.7852 148.708 54.8633C148.715 54.9414 148.711 54.9967 148.698 55.0293L147.644 54.9805L146.579 55.0293ZM152.429 55.0684C152.038 55.0684 151.68 54.9707 151.354 54.7754C151.029 54.5801 150.769 54.3164 150.573 53.9844C150.384 53.6523 150.29 53.2878 150.29 52.8906C150.29 52.487 150.381 52.1224 150.563 51.7969C150.752 51.4714 151.006 51.2142 151.325 51.0254C151.644 50.8301 152.006 50.7324 152.409 50.7324C152.8 50.7324 153.155 50.8301 153.474 51.0254C153.799 51.2207 154.056 51.4811 154.245 51.8066C154.44 52.1322 154.538 52.4935 154.538 52.8906C154.538 53.2878 154.444 53.6523 154.255 53.9844C154.066 54.3164 153.812 54.5801 153.493 54.7754C153.181 54.9707 152.826 55.0684 152.429 55.0684ZM152.517 54.6875C152.751 54.6875 152.956 54.6126 153.132 54.4629C153.308 54.3132 153.444 54.1113 153.542 53.8574C153.646 53.6035 153.698 53.3268 153.698 53.0273C153.698 52.6758 153.633 52.3568 153.503 52.0703C153.373 51.7773 153.2 51.5462 152.985 51.377C152.777 51.2012 152.549 51.1133 152.302 51.1133C152.074 51.1133 151.869 51.1882 151.687 51.3379C151.511 51.4811 151.374 51.6764 151.276 51.9238C151.179 52.1647 151.13 52.4382 151.13 52.7441C151.13 53.0957 151.192 53.4212 151.315 53.7207C151.446 54.0137 151.615 54.248 151.823 54.4238C152.038 54.5996 152.269 54.6875 152.517 54.6875ZM155.212 55.0293C155.186 55.0033 155.173 54.9479 155.173 54.8633C155.173 54.7852 155.186 54.7461 155.212 54.7461C155.264 54.7461 155.336 54.7363 155.427 54.7168C155.518 54.6973 155.603 54.6712 155.681 54.6387C155.759 54.6061 155.801 54.5768 155.808 54.5508C155.834 54.4596 155.85 54.3555 155.856 54.2383C155.869 54.1211 155.876 53.9974 155.876 53.8672V52.0215C155.876 51.7741 155.83 51.5983 155.739 51.4941C155.674 51.416 155.596 51.3639 155.505 51.3379C155.42 51.3118 155.342 51.2988 155.271 51.2988C155.205 51.2923 155.173 51.2826 155.173 51.2695C155.173 51.1133 155.192 51.0319 155.231 51.0254C155.576 50.9733 155.847 50.9277 156.042 50.8887C156.244 50.8496 156.397 50.8171 156.501 50.791L156.628 50.7617C156.654 50.7552 156.67 50.7812 156.677 50.8398C156.683 50.8919 156.683 50.9342 156.677 50.9668C156.664 51.0579 156.654 51.1361 156.647 51.2012C156.641 51.2663 156.638 51.3184 156.638 51.3574C156.638 51.3835 156.644 51.3965 156.657 51.3965C156.664 51.3965 156.674 51.39 156.687 51.377C156.836 51.2207 157.038 51.0742 157.292 50.9375C157.552 50.7943 157.8 50.7227 158.034 50.7227C158.295 50.7227 158.509 50.7943 158.679 50.9375C158.854 51.0742 158.975 51.2337 159.04 51.416C159.535 50.9538 160.039 50.7227 160.554 50.7227C161.374 50.7227 161.784 51.3477 161.784 52.5977V53.6816C161.784 53.8704 161.791 54.0365 161.804 54.1797C161.817 54.3229 161.836 54.4466 161.862 54.5508C161.875 54.5768 161.921 54.6061 161.999 54.6387C162.077 54.6712 162.162 54.6973 162.253 54.7168C162.344 54.7363 162.409 54.7461 162.448 54.7461C162.468 54.7461 162.481 54.7852 162.487 54.8633C162.494 54.9414 162.491 54.9967 162.478 55.0293L161.433 54.9805L160.368 55.0293C160.342 55.0033 160.329 54.9479 160.329 54.8633C160.329 54.7852 160.342 54.7461 160.368 54.7461C160.42 54.7461 160.492 54.7363 160.583 54.7168C160.674 54.6973 160.759 54.6712 160.837 54.6387C160.915 54.6061 160.957 54.5768 160.964 54.5508C160.99 54.4596 161.006 54.362 161.013 54.2578C161.026 54.1471 161.032 54.0365 161.032 53.9258V52.8223C161.032 51.8197 160.703 51.3184 160.046 51.3184C159.89 51.3184 159.743 51.3542 159.606 51.4258C159.47 51.4909 159.359 51.5658 159.274 51.6504C159.196 51.735 159.157 51.8099 159.157 51.875C159.177 51.9987 159.19 52.1257 159.196 52.2559C159.203 52.3796 159.206 52.5163 159.206 52.666V53.7695C159.206 53.9323 159.213 54.0788 159.226 54.209C159.239 54.3327 159.258 54.4466 159.284 54.5508C159.297 54.5768 159.343 54.6061 159.421 54.6387C159.499 54.6712 159.584 54.6973 159.675 54.7168C159.766 54.7363 159.831 54.7461 159.87 54.7461C159.89 54.7461 159.903 54.7852 159.909 54.8633C159.916 54.9414 159.912 54.9967 159.899 55.0293L158.854 54.9805L157.79 55.0293C157.764 55.0033 157.751 54.9479 157.751 54.8633C157.751 54.7852 157.764 54.7461 157.79 54.7461C157.842 54.7461 157.914 54.7363 158.005 54.7168C158.096 54.6973 158.181 54.6712 158.259 54.6387C158.337 54.6061 158.379 54.5768 158.386 54.5508C158.412 54.4596 158.428 54.3555 158.435 54.2383C158.448 54.1211 158.454 53.9974 158.454 53.8672V52.8711C158.454 51.8359 158.142 51.3184 157.517 51.3184C157.386 51.3184 157.253 51.3542 157.116 51.4258C156.979 51.4909 156.862 51.5755 156.765 51.6797C156.674 51.7773 156.628 51.8717 156.628 51.9629V53.6816C156.628 53.8704 156.634 54.0365 156.647 54.1797C156.66 54.3229 156.68 54.4466 156.706 54.5508C156.719 54.5768 156.765 54.6061 156.843 54.6387C156.921 54.6712 157.006 54.6973 157.097 54.7168C157.188 54.7363 157.253 54.7461 157.292 54.7461C157.312 54.7461 157.325 54.7852 157.331 54.8633C157.338 54.9414 157.334 54.9967 157.321 55.0293L156.276 54.9805L155.212 55.0293Z" fill="#00F6FF"/>
<g id="Group">
<path id="Vector_3" d="M137.103 50.1338C137.103 50.127 137.103 50.127 137.103 50.1338C137.103 50.1202 137.095 50.1134 137.095 50.1066V50.0998C137.095 50.093 137.087 50.0862 137.087 50.0726V50.0658C137.087 50.059 137.08 50.059 137.08 50.0522C137.08 50.0522 137.08 50.0456 137.072 50.0456C137.072 50.0456 137.072 50.0388 137.064 50.0388C137.057 50.032 137.057 50.0252 137.049 50.0184L137.027 49.998L137.019 49.9912C137.012 49.9844 137.004 49.9844 136.997 49.9776H136.989C136.981 49.9708 136.974 49.9708 136.966 49.964L133.841 48.6204C133.809 48.607 133.774 48.6 133.739 48.6C133.703 48.6 133.669 48.607 133.637 48.6204L130.511 49.9708C130.428 50.0048 130.375 50.0794 130.375 50.1608V53.6288C130.375 53.7034 130.42 53.778 130.496 53.812L133.629 55.3728C133.637 55.3796 133.644 55.3796 133.651 55.3864H133.659C133.667 55.3864 133.674 55.3932 133.682 55.3932H133.689C133.697 55.3932 133.705 55.3932 133.712 55.4H133.788C133.796 55.4 133.803 55.4 133.811 55.3932H133.818C133.826 55.3932 133.833 55.3864 133.841 55.3864H133.849C133.856 55.3864 133.864 55.3796 133.871 55.3728L137.004 53.8188C137.08 53.7848 137.125 53.7102 137.125 53.6356V50.1608C137.11 50.1474 137.11 50.1406 137.103 50.1338ZM136.641 53.5066L133.977 54.83V54.0834C133.977 53.968 133.871 53.873 133.742 53.873C133.614 53.873 133.508 53.968 133.508 54.0834V54.83L130.844 53.5066V50.5002C131.119 50.5406 131.371 50.6598 131.563 50.8396L132.04 51.3076C131.964 51.396 131.858 51.525 131.828 51.62C131.76 51.8372 131.805 52.0542 131.919 52.2376L133.485 51.4232C133.372 51.24 133.175 51.1042 132.933 51.0432C132.789 51.0092 132.577 51.0296 132.441 51.0566L132.418 51.077L131.888 50.5544C131.686 50.371 131.437 50.2337 131.162 50.154L133.742 49.048L136.361 50.1744L134.651 51.0228C134.537 51.077 134.499 51.206 134.56 51.3078C134.605 51.3758 134.681 51.4164 134.764 51.4164C134.804 51.417 134.843 51.4076 134.877 51.3892L136.633 50.5138V51.776H136.618C136.618 52.4682 135.99 53.0316 135.218 53.0316C134.946 53.0316 134.688 52.9568 134.469 52.8348C134.499 52.7668 134.514 52.6922 134.514 52.6108C134.514 52.4344 134.439 52.2782 134.31 52.1696L134.136 52.3326L133.788 52.0204C133.766 52.0008 133.736 51.9898 133.705 51.9898C133.673 51.9898 133.643 52.0008 133.621 52.0204C133.599 52.0404 133.587 52.0671 133.587 52.095C133.587 52.1228 133.599 52.1496 133.621 52.1696L133.969 52.4818L133.667 52.7532L133.311 52.4344C133.289 52.4148 133.259 52.4039 133.228 52.4039C133.197 52.4039 133.167 52.4148 133.145 52.4344C133.123 52.4544 133.111 52.4811 133.111 52.509C133.111 52.5368 133.123 52.5636 133.145 52.5836L133.5 52.9026L133.326 53.0586C133.39 53.1167 133.467 53.1628 133.551 53.1943C133.636 53.2258 133.727 53.242 133.818 53.242C133.947 53.242 134.06 53.208 134.166 53.1604C134.476 53.3495 134.842 53.4513 135.218 53.4524C135.488 53.4532 135.754 53.4013 135.999 53.3004C136.243 53.1995 136.46 53.0521 136.633 52.8686C136.641 52.8686 136.641 53.5066 136.641 53.5066Z" fill="#00F6FF"/>
</g>
</g>
</g>
<defs>
<clipPath id="clip0_127_3">
<rect width="180" height="80" fill="white"/>
</clipPath>
<clipPath id="clip1_127_3">
<rect width="46" height="7" fill="white" transform="translate(67 64)"/>
</clipPath>
</defs>
</svg>
